<svg xmlns="http://www.w3.org/2000/svg" width="920" height="600" viewBox="0 0 920 600">
<style>text{font-family:Inter, Segoe UI, Arial, sans-serif;dominant-baseline:auto} .mono{font-family:Consolas, Menlo, monospace}</style>
<rect x="0" y="0" width="920" height="600" rx="0" fill="#F9FBFD"/>
<text x="42.00" y="52.00" font-size="28" font-weight="820" fill="#17212B" text-anchor="start">Volcano plot for candidate module discovery</text>
<text x="42.00" y="82.00" font-size="14" font-weight="520" fill="#5D6977" text-anchor="start">Effect size and significance thresholds are visible without a separate legend.</text>
<text x="42.00" y="576.00" font-size="11" font-weight="500" fill="#5D6977" text-anchor="start">Synthetic random data generated with fixed seed 20260708.</text>
<rect x="88.00" y="128.00" width="788.00" height="394.00" rx="14.00" fill="#FFFFFF" stroke="#E2E8F0" opacity="1.000"/>
<line x1="390.23" y1="142.00" x2="390.23" y2="508.00" stroke="#CBD5E1" stroke-width="1.20" stroke-linecap="round" opacity="0.950"/>
<line x1="608.96" y1="142.00" x2="608.96" y2="508.00" stroke="#CBD5E1" stroke-width="1.20" stroke-linecap="round" opacity="0.950"/>
<line x1="102.00" y1="415.31" x2="862.00" y2="415.31" stroke="#CBD5E1" stroke-width="1.20" stroke-linecap="round" opacity="0.950"/>
<circle cx="389.57" cy="396.93" r="5.60" fill="#1F6F8B" stroke="#FFFFFF" stroke-width="0.90" opacity="0.840"/>
<circle cx="269.37" cy="469.97" r="3.80" fill="#94A3B8" stroke="#FFFFFF" stroke-width="0.90" opacity="0.840"/>
<circle cx="298.23" cy="249.31" r="5.60" fill="#1F6F8B" stroke="#FFFFFF" stroke-width="0.90" opacity="0.840"/>
<circle cx="509.61" cy="402.41" r="4.80" fill="#B58B2A" stroke="#FFFFFF" stroke-width="0.90" opacity="0.840"/>
<circle cx="505.89" cy="463.76" r="3.80" fill="#94A3B8" stroke="#FFFFFF" stroke-width="0.90" opacity="0.840"/>
<circle cx="713.06" cy="407.14" r="5.60" fill="#BA4C5E" stroke="#FFFFFF" stroke-width="0.90" opacity="0.840"/>
<circle cx="551.32" cy="413.35" r="4.80" fill="#B58B2A" stroke="#FFFFFF" stroke-width="0.90" opacity="0.840"/>
<circle cx="269.10" cy="470.74" r="3.80" fill="#94A3B8" stroke="#FFFFFF" stroke-width="0.90" opacity="0.840"/>
<circle cx="357.95" cy="239.31" r="5.60" fill="#1F6F8B" stroke="#FFFFFF" stroke-width="0.90" opacity="0.840"/>
<circle cx="366.29" cy="468.41" r="3.80" fill="#94A3B8" stroke="#FFFFFF" stroke-width="0.90" opacity="0.840"/>
<circle cx="463.31" cy="454.29" r="3.80" fill="#94A3B8" stroke="#FFFFFF" stroke-width="0.90" opacity="0.840"/>
<circle cx="399.14" cy="376.74" r="4.80" fill="#B58B2A" stroke="#FFFFFF" stroke-width="0.90" opacity="0.840"/>
<circle cx="457.87" cy="455.38" r="3.80" fill="#94A3B8" stroke="#FFFFFF" stroke-width="0.90" opacity="0.840"/>
<circle cx="524.79" cy="461.17" r="3.80" fill="#94A3B8" stroke="#FFFFFF" stroke-width="0.90" opacity="0.840"/>
<circle cx="649.78" cy="364.91" r="5.60" fill="#BA4C5E" stroke="#FFFFFF" stroke-width="0.90" opacity="0.840"/>
<circle cx="570.40" cy="452.29" r="3.80" fill="#94A3B8" stroke="#FFFFFF" stroke-width="0.90" opacity="0.840"/>
<circle cx="352.07" cy="261.47" r="5.60" fill="#1F6F8B" stroke="#FFFFFF" stroke-width="0.90" opacity="0.840"/>
<circle cx="501.19" cy="368.60" r="4.80" fill="#B58B2A" stroke="#FFFFFF" stroke-width="0.90" opacity="0.840"/>
<circle cx="345.31" cy="455.00" r="3.80" fill="#94A3B8" stroke="#FFFFFF" stroke-width="0.90" opacity="0.840"/>
<circle cx="550.50" cy="469.69" r="3.80" fill="#94A3B8" stroke="#FFFFFF" stroke-width="0.90" opacity="0.840"/>
<circle cx="474.35" cy="490.82" r="3.80" fill="#94A3B8" stroke="#FFFFFF" stroke-width="0.90" opacity="0.840"/>
<circle cx="432.42" cy="487.22" r="3.80" fill="#94A3B8" stroke="#FFFFFF" stroke-width="0.90" opacity="0.840"/>
<circle cx="403.87" cy="458.36" r="3.80" fill="#94A3B8" stroke="#FFFFFF" stroke-width="0.90" opacity="0.840"/>
<circle cx="607.41" cy="487.40" r="3.80" fill="#94A3B8" stroke="#FFFFFF" stroke-width="0.90" opacity="0.840"/>
<circle cx="389.39" cy="389.28" r="5.60" fill="#1F6F8B" stroke="#FFFFFF" stroke-width="0.90" opacity="0.840"/>
<circle cx="193.03" cy="183.66" r="5.60" fill="#1F6F8B" stroke="#FFFFFF" stroke-width="0.90" opacity="0.840"/>
<circle cx="601.64" cy="396.96" r="4.80" fill="#B58B2A" stroke="#FFFFFF" stroke-width="0.90" opacity="0.840"/>
<circle cx="420.19" cy="390.49" r="4.80" fill="#B58B2A" stroke="#FFFFFF" stroke-width="0.90" opacity="0.840"/>
<circle cx="789.40" cy="447.28" r="3.80" fill="#94A3B8" stroke="#FFFFFF" stroke-width="0.90" opacity="0.840"/>
<circle cx="408.92" cy="489.95" r="3.80" fill="#94A3B8" stroke="#FFFFFF" stroke-width="0.90" opacity="0.840"/>
<circle cx="429.28" cy="446.12" r="3.80" fill="#94A3B8" stroke="#FFFFFF" stroke-width="0.90" opacity="0.840"/>
<circle cx="659.00" cy="291.89" r="5.60" fill="#BA4C5E" stroke="#FFFFFF" stroke-width="0.90" opacity="0.840"/>
<circle cx="429.83" cy="454.45" r="3.80" fill="#94A3B8" stroke="#FFFFFF" stroke-width="0.90" opacity="0.840"/>
<circle cx="436.23" cy="501.65" r="3.80" fill="#94A3B8" stroke="#FFFFFF" stroke-width="0.90" opacity="0.840"/>
<circle cx="478.82" cy="431.97" r="3.80" fill="#94A3B8" stroke="#FFFFFF" stroke-width="0.90" opacity="0.840"/>
<circle cx="376.07" cy="304.71" r="5.60" fill="#1F6F8B" stroke="#FFFFFF" stroke-width="0.90" opacity="0.840"/>
<circle cx="576.66" cy="429.92" r="3.80" fill="#94A3B8" stroke="#FFFFFF" stroke-width="0.90" opacity="0.840"/>
<circle cx="531.02" cy="442.13" r="3.80" fill="#94A3B8" stroke="#FFFFFF" stroke-width="0.90" opacity="0.840"/>
<circle cx="421.89" cy="405.28" r="4.80" fill="#B58B2A" stroke="#FFFFFF" stroke-width="0.90" opacity="0.840"/>
<circle cx="651.67" cy="461.48" r="3.80" fill="#94A3B8" stroke="#FFFFFF" stroke-width="0.90" opacity="0.840"/>
<circle cx="248.37" cy="453.11" r="3.80" fill="#94A3B8" stroke="#FFFFFF" stroke-width="0.90" opacity="0.840"/>
<circle cx="319.58" cy="326.10" r="5.60" fill="#1F6F8B" stroke="#FFFFFF" stroke-width="0.90" opacity="0.840"/>
<circle cx="779.08" cy="276.75" r="5.60" fill="#BA4C5E" stroke="#FFFFFF" stroke-width="0.90" opacity="0.840"/>
<circle cx="395.56" cy="440.01" r="3.80" fill="#94A3B8" stroke="#FFFFFF" stroke-width="0.90" opacity="0.840"/>
<circle cx="476.87" cy="490.43" r="3.80" fill="#94A3B8" stroke="#FFFFFF" stroke-width="0.90" opacity="0.840"/>
<circle cx="441.15" cy="433.16" r="3.80" fill="#94A3B8" stroke="#FFFFFF" stroke-width="0.90" opacity="0.840"/>
<circle cx="709.59" cy="313.70" r="5.60" fill="#BA4C5E" stroke="#FFFFFF" stroke-width="0.90" opacity="0.840"/>
<circle cx="547.50" cy="408.42" r="4.80" fill="#B58B2A" stroke="#FFFFFF" stroke-width="0.90" opacity="0.840"/>
<circle cx="360.62" cy="218.51" r="5.60" fill="#1F6F8B" stroke="#FFFFFF" stroke-width="0.90" opacity="0.840"/>
<circle cx="556.43" cy="409.57" r="4.80" fill="#B58B2A" stroke="#FFFFFF" stroke-width="0.90" opacity="0.840"/>
<circle cx="426.62" cy="494.55" r="3.80" fill="#94A3B8" stroke="#FFFFFF" stroke-width="0.90" opacity="0.840"/>
<circle cx="385.26" cy="434.09" r="3.80" fill="#94A3B8" stroke="#FFFFFF" stroke-width="0.90" opacity="0.840"/>
<circle cx="284.85" cy="229.90" r="5.60" fill="#1F6F8B" stroke="#FFFFFF" stroke-width="0.90" opacity="0.840"/>
<circle cx="433.46" cy="376.09" r="4.80" fill="#B58B2A" stroke="#FFFFFF" stroke-width="0.90" opacity="0.840"/>
<circle cx="551.92" cy="420.50" r="3.80" fill="#94A3B8" stroke="#FFFFFF" stroke-width="0.90" opacity="0.840"/>
<circle cx="630.56" cy="417.36" r="3.80" fill="#94A3B8" stroke="#FFFFFF" stroke-width="0.90" opacity="0.840"/>
<circle cx="341.12" cy="387.58" r="5.60" fill="#1F6F8B" stroke="#FFFFFF" stroke-width="0.90" opacity="0.840"/>
<circle cx="563.09" cy="470.02" r="3.80" fill="#94A3B8" stroke="#FFFFFF" stroke-width="0.90" opacity="0.840"/>
<circle cx="473.33" cy="377.05" r="4.80" fill="#B58B2A" stroke="#FFFFFF" stroke-width="0.90" opacity="0.840"/>
<circle cx="678.99" cy="469.63" r="3.80" fill="#94A3B8" stroke="#FFFFFF" stroke-width="0.90" opacity="0.840"/>
<circle cx="449.09" cy="453.29" r="3.80" fill="#94A3B8" stroke="#FFFFFF" stroke-width="0.90" opacity="0.840"/>
<circle cx="591.53" cy="496.24" r="3.80" fill="#94A3B8" stroke="#FFFFFF" stroke-width="0.90" opacity="0.840"/>
<circle cx="556.17" cy="420.26" r="3.80" fill="#94A3B8" stroke="#FFFFFF" stroke-width="0.90" opacity="0.840"/>
<circle cx="458.55" cy="490.21" r="3.80" fill="#94A3B8" stroke="#FFFFFF" stroke-width="0.90" opacity="0.840"/>
<circle cx="346.00" cy="267.87" r="5.60" fill="#1F6F8B" stroke="#FFFFFF" stroke-width="0.90" opacity="0.840"/>
<circle cx="655.16" cy="377.07" r="5.60" fill="#BA4C5E" stroke="#FFFFFF" stroke-width="0.90" opacity="0.840"/>
<circle cx="786.66" cy="342.64" r="5.60" fill="#BA4C5E" stroke="#FFFFFF" stroke-width="0.90" opacity="0.840"/>
<circle cx="650.56" cy="368.81" r="5.60" fill="#BA4C5E" stroke="#FFFFFF" stroke-width="0.90" opacity="0.840"/>
<circle cx="395.48" cy="493.38" r="3.80" fill="#94A3B8" stroke="#FFFFFF" stroke-width="0.90" opacity="0.840"/>
<circle cx="448.40" cy="497.26" r="3.80" fill="#94A3B8" stroke="#FFFFFF" stroke-width="0.90" opacity="0.840"/>
<circle cx="318.46" cy="401.37" r="5.60" fill="#1F6F8B" stroke="#FFFFFF" stroke-width="0.90" opacity="0.840"/>
<circle cx="327.96" cy="172.67" r="5.60" fill="#1F6F8B" stroke="#FFFFFF" stroke-width="0.90" opacity="0.840"/>
<circle cx="422.60" cy="422.24" r="3.80" fill="#94A3B8" stroke="#FFFFFF" stroke-width="0.90" opacity="0.840"/>
<circle cx="321.95" cy="224.05" r="5.60" fill="#1F6F8B" stroke="#FFFFFF" stroke-width="0.90" opacity="0.840"/>
<circle cx="462.71" cy="490.31" r="3.80" fill="#94A3B8" stroke="#FFFFFF" stroke-width="0.90" opacity="0.840"/>
<circle cx="596.85" cy="473.98" r="3.80" fill="#94A3B8" stroke="#FFFFFF" stroke-width="0.90" opacity="0.840"/>
<circle cx="412.25" cy="393.00" r="4.80" fill="#B58B2A" stroke="#FFFFFF" stroke-width="0.90" opacity="0.840"/>
<circle cx="205.18" cy="219.30" r="5.60" fill="#1F6F8B" stroke="#FFFFFF" stroke-width="0.90" opacity="0.840"/>
<circle cx="558.66" cy="490.50" r="3.80" fill="#94A3B8" stroke="#FFFFFF" stroke-width="0.90" opacity="0.840"/>
<circle cx="433.20" cy="414.26" r="4.80" fill="#B58B2A" stroke="#FFFFFF" stroke-width="0.90" opacity="0.840"/>
<circle cx="570.45" cy="401.39" r="4.80" fill="#B58B2A" stroke="#FFFFFF" stroke-width="0.90" opacity="0.840"/>
<circle cx="630.85" cy="214.02" r="5.60" fill="#BA4C5E" stroke="#FFFFFF" stroke-width="0.90" opacity="0.840"/>
<circle cx="502.17" cy="495.63" r="3.80" fill="#94A3B8" stroke="#FFFFFF" stroke-width="0.90" opacity="0.840"/>
<circle cx="544.99" cy="480.14" r="3.80" fill="#94A3B8" stroke="#FFFFFF" stroke-width="0.90" opacity="0.840"/>
<circle cx="319.91" cy="197.58" r="5.60" fill="#1F6F8B" stroke="#FFFFFF" stroke-width="0.90" opacity="0.840"/>
<circle cx="347.16" cy="418.13" r="3.80" fill="#94A3B8" stroke="#FFFFFF" stroke-width="0.90" opacity="0.840"/>
<circle cx="457.81" cy="455.87" r="3.80" fill="#94A3B8" stroke="#FFFFFF" stroke-width="0.90" opacity="0.840"/>
<circle cx="532.83" cy="433.58" r="3.80" fill="#94A3B8" stroke="#FFFFFF" stroke-width="0.90" opacity="0.840"/>
<circle cx="414.33" cy="500.99" r="3.80" fill="#94A3B8" stroke="#FFFFFF" stroke-width="0.90" opacity="0.840"/>
<circle cx="638.58" cy="447.18" r="3.80" fill="#94A3B8" stroke="#FFFFFF" stroke-width="0.90" opacity="0.840"/>
<circle cx="549.83" cy="420.18" r="3.80" fill="#94A3B8" stroke="#FFFFFF" stroke-width="0.90" opacity="0.840"/>
<circle cx="399.72" cy="475.33" r="3.80" fill="#94A3B8" stroke="#FFFFFF" stroke-width="0.90" opacity="0.840"/>
<circle cx="600.06" cy="403.48" r="4.80" fill="#B58B2A" stroke="#FFFFFF" stroke-width="0.90" opacity="0.840"/>
<circle cx="349.08" cy="409.47" r="5.60" fill="#1F6F8B" stroke="#FFFFFF" stroke-width="0.90" opacity="0.840"/>
<circle cx="585.51" cy="495.24" r="3.80" fill="#94A3B8" stroke="#FFFFFF" stroke-width="0.90" opacity="0.840"/>
<circle cx="386.38" cy="377.36" r="5.60" fill="#1F6F8B" stroke="#FFFFFF" stroke-width="0.90" opacity="0.840"/>
<circle cx="366.57" cy="475.97" r="3.80" fill="#94A3B8" stroke="#FFFFFF" stroke-width="0.90" opacity="0.840"/>
<circle cx="430.39" cy="382.19" r="4.80" fill="#B58B2A" stroke="#FFFFFF" stroke-width="0.90" opacity="0.840"/>
<circle cx="734.97" cy="244.27" r="5.60" fill="#BA4C5E" stroke="#FFFFFF" stroke-width="0.90" opacity="0.840"/>
<circle cx="213.67" cy="398.89" r="5.60" fill="#1F6F8B" stroke="#FFFFFF" stroke-width="0.90" opacity="0.840"/>
<circle cx="382.07" cy="410.27" r="5.60" fill="#1F6F8B" stroke="#FFFFFF" stroke-width="0.90" opacity="0.840"/>
<circle cx="399.10" cy="382.50" r="4.80" fill="#B58B2A" stroke="#FFFFFF" stroke-width="0.90" opacity="0.840"/>
<circle cx="483.38" cy="480.75" r="3.80" fill="#94A3B8" stroke="#FFFFFF" stroke-width="0.90" opacity="0.840"/>
<circle cx="688.33" cy="274.84" r="5.60" fill="#BA4C5E" stroke="#FFFFFF" stroke-width="0.90" opacity="0.840"/>
<circle cx="240.11" cy="444.47" r="3.80" fill="#94A3B8" stroke="#FFFFFF" stroke-width="0.90" opacity="0.840"/>
<circle cx="688.08" cy="370.41" r="5.60" fill="#BA4C5E" stroke="#FFFFFF" stroke-width="0.90" opacity="0.840"/>
<circle cx="456.15" cy="430.85" r="3.80" fill="#94A3B8" stroke="#FFFFFF" stroke-width="0.90" opacity="0.840"/>
<circle cx="512.47" cy="474.98" r="3.80" fill="#94A3B8" stroke="#FFFFFF" stroke-width="0.90" opacity="0.840"/>
<circle cx="334.91" cy="410.82" r="5.60" fill="#1F6F8B" stroke="#FFFFFF" stroke-width="0.90" opacity="0.840"/>
<circle cx="553.78" cy="420.22" r="3.80" fill="#94A3B8" stroke="#FFFFFF" stroke-width="0.90" opacity="0.840"/>
<circle cx="335.82" cy="415.35" r="3.80" fill="#94A3B8" stroke="#FFFFFF" stroke-width="0.90" opacity="0.840"/>
<circle cx="384.27" cy="245.72" r="5.60" fill="#1F6F8B" stroke="#FFFFFF" stroke-width="0.90" opacity="0.840"/>
<circle cx="377.03" cy="415.43" r="3.80" fill="#94A3B8" stroke="#FFFFFF" stroke-width="0.90" opacity="0.840"/>
<circle cx="631.09" cy="272.12" r="5.60" fill="#BA4C5E" stroke="#FFFFFF" stroke-width="0.90" opacity="0.840"/>
<circle cx="564.72" cy="411.53" r="4.80" fill="#B58B2A" stroke="#FFFFFF" stroke-width="0.90" opacity="0.840"/>
<circle cx="619.46" cy="220.28" r="5.60" fill="#BA4C5E" stroke="#FFFFFF" stroke-width="0.90" opacity="0.840"/>
<circle cx="377.70" cy="278.00" r="5.60" fill="#1F6F8B" stroke="#FFFFFF" stroke-width="0.90" opacity="0.840"/>
<circle cx="553.33" cy="488.92" r="3.80" fill="#94A3B8" stroke="#FFFFFF" stroke-width="0.90" opacity="0.840"/>
<circle cx="361.02" cy="356.36" r="5.60" fill="#1F6F8B" stroke="#FFFFFF" stroke-width="0.90" opacity="0.840"/>
<circle cx="605.76" cy="487.99" r="3.80" fill="#94A3B8" stroke="#FFFFFF" stroke-width="0.90" opacity="0.840"/>
<circle cx="510.34" cy="476.52" r="3.80" fill="#94A3B8" stroke="#FFFFFF" stroke-width="0.90" opacity="0.840"/>
<circle cx="223.98" cy="465.78" r="3.80" fill="#94A3B8" stroke="#FFFFFF" stroke-width="0.90" opacity="0.840"/>
<circle cx="339.17" cy="384.26" r="5.60" fill="#1F6F8B" stroke="#FFFFFF" stroke-width="0.90" opacity="0.840"/>
<circle cx="614.30" cy="457.27" r="3.80" fill="#94A3B8" stroke="#FFFFFF" stroke-width="0.90" opacity="0.840"/>
<circle cx="319.08" cy="358.30" r="5.60" fill="#1F6F8B" stroke="#FFFFFF" stroke-width="0.90" opacity="0.840"/>
<circle cx="651.94" cy="330.65" r="5.60" fill="#BA4C5E" stroke="#FFFFFF" stroke-width="0.90" opacity="0.840"/>
<circle cx="446.32" cy="411.07" r="4.80" fill="#B58B2A" stroke="#FFFFFF" stroke-width="0.90" opacity="0.840"/>
<circle cx="397.31" cy="402.74" r="4.80" fill="#B58B2A" stroke="#FFFFFF" stroke-width="0.90" opacity="0.840"/>
<circle cx="356.12" cy="484.22" r="3.80" fill="#94A3B8" stroke="#FFFFFF" stroke-width="0.90" opacity="0.840"/>
<circle cx="332.89" cy="421.48" r="3.80" fill="#94A3B8" stroke="#FFFFFF" stroke-width="0.90" opacity="0.840"/>
<circle cx="415.18" cy="459.30" r="3.80" fill="#94A3B8" stroke="#FFFFFF" stroke-width="0.90" opacity="0.840"/>
<circle cx="458.05" cy="433.94" r="3.80" fill="#94A3B8" stroke="#FFFFFF" stroke-width="0.90" opacity="0.840"/>
<circle cx="420.99" cy="455.41" r="3.80" fill="#94A3B8" stroke="#FFFFFF" stroke-width="0.90" opacity="0.840"/>
<circle cx="140.18" cy="199.27" r="5.60" fill="#1F6F8B" stroke="#FFFFFF" stroke-width="0.90" opacity="0.840"/>
<circle cx="324.20" cy="298.95" r="5.60" fill="#1F6F8B" stroke="#FFFFFF" stroke-width="0.90" opacity="0.840"/>
<circle cx="543.21" cy="436.08" r="3.80" fill="#94A3B8" stroke="#FFFFFF" stroke-width="0.90" opacity="0.840"/>
<circle cx="609.90" cy="499.29" r="3.80" fill="#94A3B8" stroke="#FFFFFF" stroke-width="0.90" opacity="0.840"/>
<circle cx="477.34" cy="481.05" r="3.80" fill="#94A3B8" stroke="#FFFFFF" stroke-width="0.90" opacity="0.840"/>
<circle cx="245.60" cy="260.47" r="5.60" fill="#1F6F8B" stroke="#FFFFFF" stroke-width="0.90" opacity="0.840"/>
<circle cx="476.88" cy="437.67" r="3.80" fill="#94A3B8" stroke="#FFFFFF" stroke-width="0.90" opacity="0.840"/>
<circle cx="379.24" cy="294.87" r="5.60" fill="#1F6F8B" stroke="#FFFFFF" stroke-width="0.90" opacity="0.840"/>
<circle cx="741.90" cy="226.98" r="5.60" fill="#BA4C5E" stroke="#FFFFFF" stroke-width="0.90" opacity="0.840"/>
<circle cx="682.76" cy="313.93" r="5.60" fill="#BA4C5E" stroke="#FFFFFF" stroke-width="0.90" opacity="0.840"/>
<circle cx="382.85" cy="293.19" r="5.60" fill="#1F6F8B" stroke="#FFFFFF" stroke-width="0.90" opacity="0.840"/>
<circle cx="225.74" cy="498.64" r="3.80" fill="#94A3B8" stroke="#FFFFFF" stroke-width="0.90" opacity="0.840"/>
<circle cx="540.78" cy="482.48" r="3.80" fill="#94A3B8" stroke="#FFFFFF" stroke-width="0.90" opacity="0.840"/>
<circle cx="359.99" cy="220.01" r="5.60" fill="#1F6F8B" stroke="#FFFFFF" stroke-width="0.90" opacity="0.840"/>
<circle cx="680.91" cy="256.98" r="5.60" fill="#BA4C5E" stroke="#FFFFFF" stroke-width="0.90" opacity="0.840"/>
<circle cx="508.02" cy="422.71" r="3.80" fill="#94A3B8" stroke="#FFFFFF" stroke-width="0.90" opacity="0.840"/>
<circle cx="320.47" cy="342.43" r="5.60" fill="#1F6F8B" stroke="#FFFFFF" stroke-width="0.90" opacity="0.840"/>
<circle cx="500.93" cy="476.56" r="3.80" fill="#94A3B8" stroke="#FFFFFF" stroke-width="0.90" opacity="0.840"/>
<circle cx="415.59" cy="398.38" r="4.80" fill="#B58B2A" stroke="#FFFFFF" stroke-width="0.90" opacity="0.840"/>
<circle cx="333.97" cy="175.14" r="5.60" fill="#1F6F8B" stroke="#FFFFFF" stroke-width="0.90" opacity="0.840"/>
<circle cx="401.85" cy="489.48" r="3.80" fill="#94A3B8" stroke="#FFFFFF" stroke-width="0.90" opacity="0.840"/>
<circle cx="349.62" cy="319.09" r="5.60" fill="#1F6F8B" stroke="#FFFFFF" stroke-width="0.90" opacity="0.840"/>
<circle cx="643.65" cy="345.68" r="5.60" fill="#BA4C5E" stroke="#FFFFFF" stroke-width="0.90" opacity="0.840"/>
<circle cx="642.97" cy="478.82" r="3.80" fill="#94A3B8" stroke="#FFFFFF" stroke-width="0.90" opacity="0.840"/>
<circle cx="421.26" cy="474.39" r="3.80" fill="#94A3B8" stroke="#FFFFFF" stroke-width="0.90" opacity="0.840"/>
<circle cx="438.05" cy="412.82" r="4.80" fill="#B58B2A" stroke="#FFFFFF" stroke-width="0.90" opacity="0.840"/>
<circle cx="275.07" cy="380.56" r="5.60" fill="#1F6F8B" stroke="#FFFFFF" stroke-width="0.90" opacity="0.840"/>
<circle cx="330.98" cy="226.26" r="5.60" fill="#1F6F8B" stroke="#FFFFFF" stroke-width="0.90" opacity="0.840"/>
<circle cx="403.23" cy="444.15" r="3.80" fill="#94A3B8" stroke="#FFFFFF" stroke-width="0.90" opacity="0.840"/>
<circle cx="318.49" cy="493.67" r="3.80" fill="#94A3B8" stroke="#FFFFFF" stroke-width="0.90" opacity="0.840"/>
<circle cx="537.89" cy="387.60" r="4.80" fill="#B58B2A" stroke="#FFFFFF" stroke-width="0.90" opacity="0.840"/>
<circle cx="228.15" cy="422.86" r="3.80" fill="#94A3B8" stroke="#FFFFFF" stroke-width="0.90" opacity="0.840"/>
<circle cx="485.49" cy="496.21" r="3.80" fill="#94A3B8" stroke="#FFFFFF" stroke-width="0.90" opacity="0.840"/>
<circle cx="389.79" cy="368.52" r="5.60" fill="#1F6F8B" stroke="#FFFFFF" stroke-width="0.90" opacity="0.840"/>
<circle cx="577.19" cy="469.46" r="3.80" fill="#94A3B8" stroke="#FFFFFF" stroke-width="0.90" opacity="0.840"/>
<circle cx="632.98" cy="178.25" r="5.60" fill="#BA4C5E" stroke="#FFFFFF" stroke-width="0.90" opacity="0.840"/>
<circle cx="395.83" cy="390.01" r="4.80" fill="#B58B2A" stroke="#FFFFFF" stroke-width="0.90" opacity="0.840"/>
<circle cx="554.97" cy="417.40" r="3.80" fill="#94A3B8" stroke="#FFFFFF" stroke-width="0.90" opacity="0.840"/>
<circle cx="405.65" cy="398.81" r="4.80" fill="#B58B2A" stroke="#FFFFFF" stroke-width="0.90" opacity="0.840"/>
<circle cx="372.82" cy="292.52" r="5.60" fill="#1F6F8B" stroke="#FFFFFF" stroke-width="0.90" opacity="0.840"/>
<circle cx="274.72" cy="377.11" r="5.60" fill="#1F6F8B" stroke="#FFFFFF" stroke-width="0.90" opacity="0.840"/>
<circle cx="823.82" cy="402.88" r="5.60" fill="#BA4C5E" stroke="#FFFFFF" stroke-width="0.90" opacity="0.840"/>
<circle cx="582.70" cy="484.92" r="3.80" fill="#94A3B8" stroke="#FFFFFF" stroke-width="0.90" opacity="0.840"/>
<circle cx="600.10" cy="469.02" r="3.80" fill="#94A3B8" stroke="#FFFFFF" stroke-width="0.90" opacity="0.840"/>
<circle cx="557.38" cy="430.74" r="3.80" fill="#94A3B8" stroke="#FFFFFF" stroke-width="0.90" opacity="0.840"/>
<circle cx="629.32" cy="189.10" r="5.60" fill="#BA4C5E" stroke="#FFFFFF" stroke-width="0.90" opacity="0.840"/>
<circle cx="572.93" cy="500.93" r="3.80" fill="#94A3B8" stroke="#FFFFFF" stroke-width="0.90" opacity="0.840"/>
<text x="203.03" y="175.66" font-size="11" font-weight="760" fill="#17212B" text-anchor="start">m26</text>
<text x="337.96" y="164.67" font-size="11" font-weight="760" fill="#17212B" text-anchor="start">m72</text>
<text x="622.98" y="170.25" font-size="11" font-weight="760" fill="#17212B" text-anchor="end">m169</text>
<text x="215.18" y="211.30" font-size="11" font-weight="760" fill="#17212B" text-anchor="start">m78</text>
<text x="329.91" y="189.58" font-size="11" font-weight="760" fill="#17212B" text-anchor="start">m85</text>
<text x="482.00" y="560.00" font-size="12" font-weight="760" fill="#5D6977" text-anchor="middle">log2 fold change</text>
<text x="38.00" y="140.00" font-size="12" font-weight="760" fill="#5D6977" text-anchor="start">-log10 p</text>
</svg>
