<svg xmlns="http://www.w3.org/2000/svg" width="920" height="580" viewBox="0 0 920 580">
<style>text{font-family:Inter, Segoe UI, Arial, sans-serif;dominant-baseline:auto} .mono{font-family:Consolas, Menlo, monospace}</style>
<rect x="0" y="0" width="920" height="580" rx="0" fill="#FCF8FB"/>
<text x="42.00" y="52.00" font-size="28" font-weight="820" fill="#17212B" text-anchor="start">Run stability ridgeline</text>
<text x="42.00" y="82.00" font-size="14" font-weight="520" fill="#5D6977" text-anchor="start">Distribution shapes make random-seed behavior visible without a crowded table.</text>
<text x="42.00" y="556.00" font-size="11" font-weight="500" fill="#5D6977" text-anchor="start">Synthetic random data generated with fixed seed 20260708.</text>
<polygon points="118.00,504.00 118.00,498.55 127.25,497.17 136.50,495.55 145.75,493.66 155.00,491.46 164.25,488.92 173.50,485.99 182.75,482.63 192.00,478.80 201.25,474.48 210.50,469.68 219.75,464.44 229.00,458.81 238.25,452.93 247.50,446.92 256.75,440.97 266.00,435.27 275.25,430.02 284.50,425.40 293.75,421.56 303.00,418.62 312.25,416.65 321.50,415.68 330.75,415.70 340.00,416.64 349.25,418.44 358.50,420.97 367.75,424.14 377.00,427.80 386.25,431.82 395.50,436.08 404.75,440.43 414.00,444.74 423.25,448.90 432.50,452.81 441.75,456.38 451.00,459.57 460.25,462.35 469.50,464.75 478.75,466.80 488.00,468.57 497.25,470.15 506.50,471.61 515.75,473.04 525.00,474.52 534.25,476.10 543.50,477.82 552.75,479.70 562.00,481.72 571.25,483.87 580.50,486.10 589.75,488.36 599.00,490.58 608.25,492.72 617.50,494.70 626.75,496.51 636.00,498.09 645.25,499.44 654.50,500.57 663.75,501.48 673.00,502.19 682.25,502.73 691.50,503.14 700.75,503.43 710.00,503.63 719.25,503.76 728.50,503.85 737.75,503.91 747.00,503.95 756.25,503.97 765.50,503.98 774.75,503.99 784.00,504.00 793.25,504.00 802.50,504.00 811.75,504.00 821.00,504.00 830.25,504.00 839.50,504.00 848.75,504.00 858.00,504.00 858.00,504.00" fill="#3B1F5E" stroke="none" stroke-width="1.20" opacity="0.360"/>
<polyline points="118.00,498.55 127.25,497.17 136.50,495.55 145.75,493.66 155.00,491.46 164.25,488.92 173.50,485.99 182.75,482.63 192.00,478.80 201.25,474.48 210.50,469.68 219.75,464.44 229.00,458.81 238.25,452.93 247.50,446.92 256.75,440.97 266.00,435.27 275.25,430.02 284.50,425.40 293.75,421.56 303.00,418.62 312.25,416.65 321.50,415.68 330.75,415.70 340.00,416.64 349.25,418.44 358.50,420.97 367.75,424.14 377.00,427.80 386.25,431.82 395.50,436.08 404.75,440.43 414.00,444.74 423.25,448.90 432.50,452.81 441.75,456.38 451.00,459.57 460.25,462.35 469.50,464.75 478.75,466.80 488.00,468.57 497.25,470.15 506.50,471.61 515.75,473.04 525.00,474.52 534.25,476.10 543.50,477.82 552.75,479.70 562.00,481.72 571.25,483.87 580.50,486.10 589.75,488.36 599.00,490.58 608.25,492.72 617.50,494.70 626.75,496.51 636.00,498.09 645.25,499.44 654.50,500.57 663.75,501.48 673.00,502.19 682.25,502.73 691.50,503.14 700.75,503.43 710.00,503.63 719.25,503.76 728.50,503.85 737.75,503.91 747.00,503.95 756.25,503.97 765.50,503.98 774.75,503.99 784.00,504.00 793.25,504.00 802.50,504.00 811.75,504.00 821.00,504.00 830.25,504.00 839.50,504.00 848.75,504.00 858.00,504.00" fill="none" stroke="#3B1F5E" stroke-width="2.50" stroke-linecap="round" stroke-linejoin="round" opacity="0.920"/>
<line x1="118.00" y1="504.00" x2="858.00" y2="504.00" stroke="#DCE4EC" stroke-width="0.80" stroke-linecap="round" opacity="0.720"/>
<text x="100.00" y="508.00" font-size="12" font-weight="720" fill="#17212B" text-anchor="end">seed A</text>
<circle cx="360.28" cy="504.00" r="4.80" fill="#3B1F5E" stroke="#FFFFFF" stroke-width="1.40" opacity="1.000"/>
<polygon points="118.00,381.33 118.00,379.39 127.25,378.99 136.50,378.56 145.75,378.10 155.00,377.60 164.25,377.08 173.50,376.51 182.75,375.89 192.00,375.21 201.25,374.43 210.50,373.53 219.75,372.48 229.00,371.24 238.25,369.79 247.50,368.07 256.75,366.08 266.00,363.79 275.25,361.19 284.50,358.26 293.75,355.00 303.00,351.42 312.25,347.54 321.50,343.36 330.75,338.94 340.00,334.30 349.25,329.50 358.50,324.63 367.75,319.76 377.00,315.00 386.25,310.45 395.50,306.22 404.75,302.43 414.00,299.17 423.25,296.54 432.50,294.61 441.75,293.43 451.00,293.01 460.25,293.38 469.50,294.50 478.75,296.34 488.00,298.85 497.25,301.94 506.50,305.54 515.75,309.55 525.00,313.87 534.25,318.38 543.50,322.99 552.75,327.58 562.00,332.07 571.25,336.37 580.50,340.41 589.75,344.13 599.00,347.50 608.25,350.51 617.50,353.17 626.75,355.48 636.00,357.50 645.25,359.26 654.50,360.82 663.75,362.21 673.00,363.50 682.25,364.72 691.50,365.89 700.75,367.04 710.00,368.17 719.25,369.30 728.50,370.40 737.75,371.47 747.00,372.51 756.25,373.49 765.50,374.41 774.75,375.27 784.00,376.05 793.25,376.77 802.50,377.42 811.75,378.00 821.00,378.52 830.25,378.99 839.50,379.40 848.75,379.76 858.00,380.07 858.00,381.33" fill="#6A4C93" stroke="none" stroke-width="1.20" opacity="0.360"/>
<polyline points="118.00,379.39 127.25,378.99 136.50,378.56 145.75,378.10 155.00,377.60 164.25,377.08 173.50,376.51 182.75,375.89 192.00,375.21 201.25,374.43 210.50,373.53 219.75,372.48 229.00,371.24 238.25,369.79 247.50,368.07 256.75,366.08 266.00,363.79 275.25,361.19 284.50,358.26 293.75,355.00 303.00,351.42 312.25,347.54 321.50,343.36 330.75,338.94 340.00,334.30 349.25,329.50 358.50,324.63 367.75,319.76 377.00,315.00 386.25,310.45 395.50,306.22 404.75,302.43 414.00,299.17 423.25,296.54 432.50,294.61 441.75,293.43 451.00,293.01 460.25,293.38 469.50,294.50 478.75,296.34 488.00,298.85 497.25,301.94 506.50,305.54 515.75,309.55 525.00,313.87 534.25,318.38 543.50,322.99 552.75,327.58 562.00,332.07 571.25,336.37 580.50,340.41 589.75,344.13 599.00,347.50 608.25,350.51 617.50,353.17 626.75,355.48 636.00,357.50 645.25,359.26 654.50,360.82 663.75,362.21 673.00,363.50 682.25,364.72 691.50,365.89 700.75,367.04 710.00,368.17 719.25,369.30 728.50,370.40 737.75,371.47 747.00,372.51 756.25,373.49 765.50,374.41 774.75,375.27 784.00,376.05 793.25,376.77 802.50,377.42 811.75,378.00 821.00,378.52 830.25,378.99 839.50,379.40 848.75,379.76 858.00,380.07" fill="none" stroke="#6A4C93" stroke-width="2.50" stroke-linecap="round" stroke-linejoin="round" opacity="0.920"/>
<line x1="118.00" y1="381.33" x2="858.00" y2="381.33" stroke="#DCE4EC" stroke-width="0.80" stroke-linecap="round" opacity="0.720"/>
<text x="100.00" y="385.33" font-size="12" font-weight="720" fill="#17212B" text-anchor="end">seed B</text>
<circle cx="465.63" cy="381.33" r="4.80" fill="#6A4C93" stroke="#FFFFFF" stroke-width="1.40" opacity="1.000"/>
<polygon points="118.00,258.67 118.00,258.67 127.25,258.67 136.50,258.67 145.75,258.67 155.00,258.67 164.25,258.67 173.50,258.67 182.75,258.66 192.00,258.66 201.25,258.66 210.50,258.64 219.75,258.63 229.00,258.59 238.25,258.54 247.50,258.45 256.75,258.33 266.00,258.14 275.25,257.88 284.50,257.52 293.75,257.07 303.00,256.49 312.25,255.78 321.50,254.94 330.75,253.95 340.00,252.78 349.25,251.40 358.50,249.75 367.75,247.76 377.00,245.34 386.25,242.38 395.50,238.81 404.75,234.58 414.00,229.66 423.25,224.10 432.50,218.00 441.75,211.52 451.00,204.87 460.25,198.28 469.50,192.00 478.75,186.26 488.00,181.26 497.25,177.14 506.50,174.00 515.75,171.86 525.00,170.67 534.25,170.35 543.50,170.78 552.75,171.82 562.00,173.34 571.25,175.25 580.50,177.48 589.75,179.99 599.00,182.80 608.25,185.94 617.50,189.45 626.75,193.37 636.00,197.68 645.25,202.36 654.50,207.33 663.75,212.50 673.00,217.72 682.25,222.85 691.50,227.74 700.75,232.28 710.00,236.36 719.25,239.93 728.50,242.96 737.75,245.45 747.00,247.47 756.25,249.06 765.50,250.31 774.75,251.29 784.00,252.08 793.25,252.74 802.50,253.32 811.75,253.86 821.00,254.38 830.25,254.89 839.50,255.40 848.75,255.89 858.00,256.36 858.00,258.67" fill="#B565A7" stroke="none" stroke-width="1.20" opacity="0.360"/>
<polyline points="118.00,258.67 127.25,258.67 136.50,258.67 145.75,258.67 155.00,258.67 164.25,258.67 173.50,258.67 182.75,258.66 192.00,258.66 201.25,258.66 210.50,258.64 219.75,258.63 229.00,258.59 238.25,258.54 247.50,258.45 256.75,258.33 266.00,258.14 275.25,257.88 284.50,257.52 293.75,257.07 303.00,256.49 312.25,255.78 321.50,254.94 330.75,253.95 340.00,252.78 349.25,251.40 358.50,249.75 367.75,247.76 377.00,245.34 386.25,242.38 395.50,238.81 404.75,234.58 414.00,229.66 423.25,224.10 432.50,218.00 441.75,211.52 451.00,204.87 460.25,198.28 469.50,192.00 478.75,186.26 488.00,181.26 497.25,177.14 506.50,174.00 515.75,171.86 525.00,170.67 534.25,170.35 543.50,170.78 552.75,171.82 562.00,173.34 571.25,175.25 580.50,177.48 589.75,179.99 599.00,182.80 608.25,185.94 617.50,189.45 626.75,193.37 636.00,197.68 645.25,202.36 654.50,207.33 663.75,212.50 673.00,217.72 682.25,222.85 691.50,227.74 700.75,232.28 710.00,236.36 719.25,239.93 728.50,242.96 737.75,245.45 747.00,247.47 756.25,249.06 765.50,250.31 774.75,251.29 784.00,252.08 793.25,252.74 802.50,253.32 811.75,253.86 821.00,254.38 830.25,254.89 839.50,255.40 848.75,255.89 858.00,256.36" fill="none" stroke="#B565A7" stroke-width="2.50" stroke-linecap="round" stroke-linejoin="round" opacity="0.920"/>
<line x1="118.00" y1="258.67" x2="858.00" y2="258.67" stroke="#DCE4EC" stroke-width="0.80" stroke-linecap="round" opacity="0.720"/>
<text x="100.00" y="262.67" font-size="12" font-weight="720" fill="#17212B" text-anchor="end">seed C</text>
<circle cx="556.95" cy="258.67" r="4.80" fill="#B565A7" stroke="#FFFFFF" stroke-width="1.40" opacity="1.000"/>
<polygon points="118.00,136.00 118.00,136.00 127.25,136.00 136.50,136.00 145.75,136.00 155.00,136.00 164.25,136.00 173.50,136.00 182.75,136.00 192.00,136.00 201.25,136.00 210.50,136.00 219.75,136.00 229.00,136.00 238.25,136.00 247.50,136.00 256.75,136.00 266.00,136.00 275.25,136.00 284.50,136.00 293.75,136.00 303.00,136.00 312.25,136.00 321.50,136.00 330.75,135.99 340.00,135.99 349.25,135.97 358.50,135.94 367.75,135.88 377.00,135.78 386.25,135.62 395.50,135.39 404.75,135.07 414.00,134.64 423.25,134.09 432.50,133.40 441.75,132.54 451.00,131.46 460.25,130.07 469.50,128.26 478.75,125.90 488.00,122.85 497.25,119.03 506.50,114.40 515.75,108.96 525.00,102.81 534.25,96.07 543.50,88.93 552.75,81.59 562.00,74.31 571.25,67.38 580.50,61.11 589.75,55.81 599.00,51.73 608.25,49.03 617.50,47.73 626.75,47.68 636.00,48.63 645.25,50.21 654.50,52.06 663.75,53.88 673.00,55.52 682.25,57.02 691.50,58.59 700.75,60.58 710.00,63.37 719.25,67.27 728.50,72.41 737.75,78.74 747.00,85.97 756.25,93.71 765.50,101.47 774.75,108.81 784.00,115.38 793.25,120.95 802.50,125.44 811.75,128.88 821.00,131.40 830.25,133.15 839.50,134.31 848.75,135.04 858.00,135.48 858.00,136.00" fill="#E56B6F" stroke="none" stroke-width="1.20" opacity="0.360"/>
<polyline points="118.00,136.00 127.25,136.00 136.50,136.00 145.75,136.00 155.00,136.00 164.25,136.00 173.50,136.00 182.75,136.00 192.00,136.00 201.25,136.00 210.50,136.00 219.75,136.00 229.00,136.00 238.25,136.00 247.50,136.00 256.75,136.00 266.00,136.00 275.25,136.00 284.50,136.00 293.75,136.00 303.00,136.00 312.25,136.00 321.50,136.00 330.75,135.99 340.00,135.99 349.25,135.97 358.50,135.94 367.75,135.88 377.00,135.78 386.25,135.62 395.50,135.39 404.75,135.07 414.00,134.64 423.25,134.09 432.50,133.40 441.75,132.54 451.00,131.46 460.25,130.07 469.50,128.26 478.75,125.90 488.00,122.85 497.25,119.03 506.50,114.40 515.75,108.96 525.00,102.81 534.25,96.07 543.50,88.93 552.75,81.59 562.00,74.31 571.25,67.38 580.50,61.11 589.75,55.81 599.00,51.73 608.25,49.03 617.50,47.73 626.75,47.68 636.00,48.63 645.25,50.21 654.50,52.06 663.75,53.88 673.00,55.52 682.25,57.02 691.50,58.59 700.75,60.58 710.00,63.37 719.25,67.27 728.50,72.41 737.75,78.74 747.00,85.97 756.25,93.71 765.50,101.47 774.75,108.81 784.00,115.38 793.25,120.95 802.50,125.44 811.75,128.88 821.00,131.40 830.25,133.15 839.50,134.31 848.75,135.04 858.00,135.48" fill="none" stroke="#E56B6F" stroke-width="2.50" stroke-linecap="round" stroke-linejoin="round" opacity="0.920"/>
<line x1="118.00" y1="136.00" x2="858.00" y2="136.00" stroke="#DCE4EC" stroke-width="0.80" stroke-linecap="round" opacity="0.720"/>
<text x="100.00" y="140.00" font-size="12" font-weight="720" fill="#17212B" text-anchor="end">seed D</text>
<circle cx="642.64" cy="136.00" r="4.80" fill="#E56B6F" stroke="#FFFFFF" stroke-width="1.40" opacity="1.000"/>
<text x="118.00" y="534.00" font-size="11" font-weight="500" fill="#5D6977" text-anchor="middle">58.5</text>
<text x="303.00" y="534.00" font-size="11" font-weight="500" fill="#5D6977" text-anchor="middle">68.1</text>
<text x="488.00" y="534.00" font-size="11" font-weight="500" fill="#5D6977" text-anchor="middle">77.8</text>
<text x="673.00" y="534.00" font-size="11" font-weight="500" fill="#5D6977" text-anchor="middle">87.4</text>
<text x="858.00" y="534.00" font-size="11" font-weight="500" fill="#5D6977" text-anchor="middle">97.1</text>
</svg>
