<svg xmlns="http://www.w3.org/2000/svg" width="900" height="560" viewBox="0 0 900 560">
<style>text{font-family:Inter, Segoe UI, Arial, sans-serif;dominant-baseline:auto} .mono{font-family:Consolas, Menlo, monospace}</style>
<rect x="0" y="0" width="900" height="560" rx="0" fill="#FBFCFE"/>
<text x="42.00" y="52.00" font-size="28" font-weight="820" fill="#17212B" text-anchor="start">Small-multiple view of base-to-big scaling</text>
<text x="42.00" y="82.00" font-size="14" font-weight="520" fill="#5D6977" text-anchor="start">Each panel keeps a local scale and direct labels the evidence shape.</text>
<text x="42.00" y="536.00" font-size="11" font-weight="500" fill="#5D6977" text-anchor="start">Source: demo/artifacts/official-data.md; values are official Transformer paper excerpts.</text>
<rect x="70.00" y="128.00" width="367.00" height="174.00" rx="14.00" fill="#FFFFFF" stroke="#E6ECF2" opacity="1.000"/>
<text x="84.00" y="152.00" font-size="13" font-weight="760" fill="#17212B" text-anchor="start">step time (s)</text>
<line x1="82.00" y1="185.42" x2="425.00" y2="185.42" stroke="#DCE4EC" stroke-width="0.70" stroke-linecap="round" opacity="0.800"/>
<line x1="82.00" y1="242.84" x2="425.00" y2="242.84" stroke="#DCE4EC" stroke-width="0.70" stroke-linecap="round" opacity="0.800"/>
<polyline points="103.05,275.00 403.95,175.00" fill="none" stroke="#1F6F8B" stroke-width="2.80" stroke-linecap="round" stroke-linejoin="round" opacity="1.000"/>
<circle cx="103.05" cy="275.00" r="3.50" fill="#1F6F8B" stroke="#FFFFFF" stroke-width="1.00" opacity="1.000"/>
<circle cx="403.95" cy="175.00" r="3.50" fill="#1F6F8B" stroke="#FFFFFF" stroke-width="1.00" opacity="1.000"/>
<text x="84.00" y="292.00" font-size="10" font-weight="500" fill="#5D6977" text-anchor="start">0.4 - 1.0</text>
<rect x="463.00" y="128.00" width="367.00" height="174.00" rx="14.00" fill="#FFFFFF" stroke="#E6ECF2" opacity="1.000"/>
<text x="477.00" y="152.00" font-size="13" font-weight="760" fill="#17212B" text-anchor="start">training steps (100K)</text>
<line x1="475.00" y1="185.42" x2="818.00" y2="185.42" stroke="#DCE4EC" stroke-width="0.70" stroke-linecap="round" opacity="0.800"/>
<line x1="475.00" y1="242.84" x2="818.00" y2="242.84" stroke="#DCE4EC" stroke-width="0.70" stroke-linecap="round" opacity="0.800"/>
<polyline points="496.05,275.00 796.95,175.00" fill="none" stroke="#D2673D" stroke-width="2.80" stroke-linecap="round" stroke-linejoin="round" opacity="1.000"/>
<circle cx="496.05" cy="275.00" r="3.50" fill="#D2673D" stroke="#FFFFFF" stroke-width="1.00" opacity="1.000"/>
<circle cx="796.95" cy="175.00" r="3.50" fill="#D2673D" stroke="#FFFFFF" stroke-width="1.00" opacity="1.000"/>
<text x="477.00" y="292.00" font-size="10" font-weight="500" fill="#5D6977" text-anchor="start">0.9 - 3.1</text>
<rect x="70.00" y="328.00" width="367.00" height="174.00" rx="14.00" fill="#FFFFFF" stroke="#E6ECF2" opacity="1.000"/>
<text x="84.00" y="352.00" font-size="13" font-weight="760" fill="#17212B" text-anchor="start">duration (12h units)</text>
<line x1="82.00" y1="385.42" x2="425.00" y2="385.42" stroke="#DCE4EC" stroke-width="0.70" stroke-linecap="round" opacity="0.800"/>
<line x1="82.00" y1="442.84" x2="425.00" y2="442.84" stroke="#DCE4EC" stroke-width="0.70" stroke-linecap="round" opacity="0.800"/>
<polyline points="103.05,475.00 403.95,375.00" fill="none" stroke="#6657A8" stroke-width="2.80" stroke-linecap="round" stroke-linejoin="round" opacity="1.000"/>
<circle cx="103.05" cy="475.00" r="3.50" fill="#6657A8" stroke="#FFFFFF" stroke-width="1.00" opacity="1.000"/>
<circle cx="403.95" cy="375.00" r="3.50" fill="#6657A8" stroke="#FFFFFF" stroke-width="1.00" opacity="1.000"/>
<text x="84.00" y="492.00" font-size="10" font-weight="500" fill="#5D6977" text-anchor="start">0.7 - 7.3</text>
<rect x="463.00" y="328.00" width="367.00" height="174.00" rx="14.00" fill="#FFFFFF" stroke="#E6ECF2" opacity="1.000"/>
<text x="477.00" y="352.00" font-size="13" font-weight="760" fill="#17212B" text-anchor="start">attention heads</text>
<line x1="475.00" y1="385.42" x2="818.00" y2="385.42" stroke="#DCE4EC" stroke-width="0.70" stroke-linecap="round" opacity="0.800"/>
<line x1="475.00" y1="442.84" x2="818.00" y2="442.84" stroke="#DCE4EC" stroke-width="0.70" stroke-linecap="round" opacity="0.800"/>
<polyline points="496.05,475.00 796.95,375.00" fill="none" stroke="#2A9D8F" stroke-width="2.80" stroke-linecap="round" stroke-linejoin="round" opacity="1.000"/>
<circle cx="496.05" cy="475.00" r="3.50" fill="#2A9D8F" stroke="#FFFFFF" stroke-width="1.00" opacity="1.000"/>
<circle cx="796.95" cy="375.00" r="3.50" fill="#2A9D8F" stroke="#FFFFFF" stroke-width="1.00" opacity="1.000"/>
<text x="477.00" y="492.00" font-size="10" font-weight="500" fill="#5D6977" text-anchor="start">7.6 - 16.4</text>
</svg>
