<svg xmlns="http://www.w3.org/2000/svg" width="1800" height="1080" viewBox="0 0 1800 1080">
<defs>
<linearGradient id="header" x1="0" y1="0" x2="1" y2="1"><stop offset="0" stop-color="#102033"/><stop offset="0.58" stop-color="#1F6F8B"/><stop offset="1" stop-color="#7A4E9B"/></linearGradient>
<filter id="shadow" x="-20%" y="-20%" width="140%" height="160%"><feDropShadow dx="0" dy="12" stdDeviation="12" flood-color="#0B1826" flood-opacity="0.13"/></filter>
<marker id="arrow" markerWidth="13" markerHeight="13" refX="11" refY="6.5" orient="auto"><path d="M2,2 L11,6.5 L2,11 Z" fill="#7B8794"/></marker>
</defs>
<style>text{font-family:Inter, Segoe UI, Arial, sans-serif;dominant-baseline:auto} .mono{font-family:Consolas,Menlo,monospace}</style>
<rect x="0" y="0" width="1800" height="1080" rx="0" fill="#F6F8FB" stroke="none" stroke-width="2" />
<rect x="0" y="0" width="1800" height="168" rx="0" fill="url(#header)" stroke="none" stroke-width="2" />
<text x="72" y="68" font-size="38" font-weight="850" fill="#FFFFFF" text-anchor="start">CCFA Skill Family Logic</text>
<text x="72" y="108" font-size="19" font-weight="500" fill="#D8E6F2" text-anchor="start">Main research chain, shared state, governance, and revision loop.</text>
<text x="1688" y="64" font-size="16" font-weight="650" fill="#D8E6F2" text-anchor="end">v0.4.5 · 13 owner skills · one paper-project loop</text>
<rect x="60" y="238" width="260" height="246" rx="24" fill="#FFFFFF" stroke="none" stroke-width="2" filter="url(#shadow)"/>
<rect x="60" y="238" width="260" height="52" rx="24" fill="#1F7A8C" stroke="none" stroke-width="2" />
<text x="82" y="272" font-size="18" font-weight="820" fill="#FFFFFF" text-anchor="start">Setup</text>
<rect x="78" y="308" width="224" height="66" rx="18" fill="#FFFFFF" stroke="none" stroke-width="2" filter="url(#shadow)"/>
<rect x="78" y="308" width="8" height="66" rx="18" fill="#1F7A8C" stroke="none" stroke-width="2" />
<text x="102" y="342" font-size="15" font-weight="820" fill="#15202B" text-anchor="start">ccf-project-scaffolder</text>
<text x="102" y="367" font-size="13" font-weight="520" fill="#5A6775" text-anchor="start">project folders, template,</text>
<text x="102" y="385" font-size="13" font-weight="520" fill="#5A6775" text-anchor="start">ccfa.yaml</text>
<rect x="78" y="390" width="224" height="66" rx="18" fill="#FFFFFF" stroke="none" stroke-width="2" filter="url(#shadow)"/>
<rect x="78" y="390" width="8" height="66" rx="18" fill="#1F7A8C" stroke="none" stroke-width="2" />
<text x="102" y="424" font-size="15" font-weight="820" fill="#15202B" text-anchor="start">ccf-pipeline-orchestrator</text>
<text x="102" y="449" font-size="13" font-weight="520" fill="#5A6775" text-anchor="start">stage plan, gates, handoffs</text>
<rect x="340" y="238" width="260" height="246" rx="24" fill="#FFFFFF" stroke="none" stroke-width="2" filter="url(#shadow)"/>
<rect x="340" y="238" width="260" height="52" rx="24" fill="#D2673D" stroke="none" stroke-width="2" />
<text x="362" y="272" font-size="18" font-weight="820" fill="#FFFFFF" text-anchor="start">Idea Gate</text>
<rect x="358" y="308" width="224" height="66" rx="18" fill="#FFFFFF" stroke="none" stroke-width="2" filter="url(#shadow)"/>
<rect x="358" y="308" width="8" height="66" rx="18" fill="#D2673D" stroke="none" stroke-width="2" />
<text x="382" y="342" font-size="15" font-weight="820" fill="#15202B" text-anchor="start">ccf-idea-optimizer</text>
<text x="382" y="367" font-size="13" font-weight="520" fill="#5A6775" text-anchor="start">problem, gap, insight,</text>
<text x="382" y="385" font-size="13" font-weight="520" fill="#5A6775" text-anchor="start">method</text>
<rect x="358" y="390" width="224" height="66" rx="18" fill="#FFFFFF" stroke="none" stroke-width="2" filter="url(#shadow)"/>
<rect x="358" y="390" width="8" height="66" rx="18" fill="#D2673D" stroke="none" stroke-width="2" />
<text x="382" y="424" font-size="15" font-weight="820" fill="#15202B" text-anchor="start">ccf-idea-reviewer</text>
<text x="382" y="449" font-size="13" font-weight="520" fill="#5A6775" text-anchor="start">score, rank, reject risk</text>
<rect x="620" y="238" width="260" height="246" rx="24" fill="#FFFFFF" stroke="none" stroke-width="2" filter="url(#shadow)"/>
<rect x="620" y="238" width="260" height="52" rx="24" fill="#6657A8" stroke="none" stroke-width="2" />
<text x="642" y="272" font-size="18" font-weight="820" fill="#FFFFFF" text-anchor="start">Evidence</text>
<rect x="638" y="308" width="224" height="66" rx="18" fill="#FFFFFF" stroke="none" stroke-width="2" filter="url(#shadow)"/>
<rect x="638" y="308" width="8" height="66" rx="18" fill="#6657A8" stroke="none" stroke-width="2" />
<text x="662" y="342" font-size="15" font-weight="820" fill="#15202B" text-anchor="start">ccf-literature-searcher</text>
<text x="662" y="367" font-size="13" font-weight="520" fill="#5A6775" text-anchor="start">prior art, datasets,</text>
<text x="662" y="385" font-size="13" font-weight="520" fill="#5A6775" text-anchor="start">benchmarks</text>
<rect x="638" y="390" width="224" height="66" rx="18" fill="#FFFFFF" stroke="none" stroke-width="2" filter="url(#shadow)"/>
<rect x="638" y="390" width="8" height="66" rx="18" fill="#6657A8" stroke="none" stroke-width="2" />
<text x="662" y="424" font-size="15" font-weight="820" fill="#15202B" text-anchor="start">ccf-experiment-designer</text>
<text x="662" y="449" font-size="13" font-weight="520" fill="#5A6775" text-anchor="start">baselines, ablations, real</text>
<text x="662" y="467" font-size="13" font-weight="520" fill="#5A6775" text-anchor="start">tables</text>
<rect x="900" y="238" width="260" height="164" rx="24" fill="#FFFFFF" stroke="none" stroke-width="2" filter="url(#shadow)"/>
<rect x="900" y="238" width="260" height="52" rx="24" fill="#2D3742" stroke="none" stroke-width="2" />
<text x="922" y="272" font-size="18" font-weight="820" fill="#FFFFFF" text-anchor="start">Manuscript</text>
<rect x="918" y="308" width="224" height="66" rx="18" fill="#FFFFFF" stroke="none" stroke-width="2" filter="url(#shadow)"/>
<rect x="918" y="308" width="8" height="66" rx="18" fill="#2D3742" stroke="none" stroke-width="2" />
<text x="942" y="342" font-size="15" font-weight="820" fill="#15202B" text-anchor="start">ccf-paper-writer</text>
<text x="942" y="367" font-size="13" font-weight="520" fill="#5A6775" text-anchor="start">draft, revise, compress,</text>
<text x="942" y="385" font-size="13" font-weight="520" fill="#5A6775" text-anchor="start">present</text>
<rect x="1180" y="238" width="260" height="246" rx="24" fill="#FFFFFF" stroke="none" stroke-width="2" filter="url(#shadow)"/>
<rect x="1180" y="238" width="260" height="52" rx="24" fill="#B58B2A" stroke="none" stroke-width="2" />
<text x="1202" y="272" font-size="18" font-weight="820" fill="#FFFFFF" text-anchor="start">Assurance</text>
<rect x="1198" y="308" width="224" height="66" rx="18" fill="#FFFFFF" stroke="none" stroke-width="2" filter="url(#shadow)"/>
<rect x="1198" y="308" width="8" height="66" rx="18" fill="#B58B2A" stroke="none" stroke-width="2" />
<text x="1222" y="342" font-size="15" font-weight="820" fill="#15202B" text-anchor="start">ccf-paper-reviewer</text>
<text x="1222" y="367" font-size="13" font-weight="520" fill="#5A6775" text-anchor="start">science and writing review</text>
<rect x="1198" y="390" width="224" height="66" rx="18" fill="#FFFFFF" stroke="none" stroke-width="2" filter="url(#shadow)"/>
<rect x="1198" y="390" width="8" height="66" rx="18" fill="#8A4F86" stroke="none" stroke-width="2" />
<text x="1222" y="424" font-size="15" font-weight="820" fill="#15202B" text-anchor="start">ccf-integrity-auditor</text>
<text x="1222" y="449" font-size="13" font-weight="520" fill="#5A6775" text-anchor="start">claims, numbers, citations</text>
<rect x="1460" y="238" width="260" height="246" rx="24" fill="#FFFFFF" stroke="none" stroke-width="2" filter="url(#shadow)"/>
<rect x="1460" y="238" width="260" height="52" rx="24" fill="#BA4C5E" stroke="none" stroke-width="2" />
<text x="1482" y="272" font-size="18" font-weight="820" fill="#FFFFFF" text-anchor="start">Submit / Respond</text>
<rect x="1478" y="308" width="224" height="66" rx="18" fill="#FFFFFF" stroke="none" stroke-width="2" filter="url(#shadow)"/>
<rect x="1478" y="308" width="8" height="66" rx="18" fill="#BA4C5E" stroke="none" stroke-width="2" />
<text x="1502" y="342" font-size="15" font-weight="820" fill="#15202B" text-anchor="start">ccf-submission-checker</text>
<text x="1502" y="367" font-size="13" font-weight="520" fill="#5A6775" text-anchor="start">venue, PDF, anonymity,</text>
<text x="1502" y="385" font-size="13" font-weight="520" fill="#5A6775" text-anchor="start">artifacts</text>
<rect x="1478" y="390" width="224" height="66" rx="18" fill="#FFFFFF" stroke="none" stroke-width="2" filter="url(#shadow)"/>
<rect x="1478" y="390" width="8" height="66" rx="18" fill="#477AA6" stroke="none" stroke-width="2" />
<text x="1502" y="424" font-size="15" font-weight="820" fill="#15202B" text-anchor="start">ccf-rebuttal-writer</text>
<text x="1502" y="449" font-size="13" font-weight="520" fill="#5A6775" text-anchor="start">response, ledger,</text>
<text x="1502" y="467" font-size="13" font-weight="520" fill="#5A6775" text-anchor="start">resubmission</text>
<line x1="320" y1="410" x2="364" y2="410" stroke="#94A3B8" stroke-width="3" stroke-linecap="round" marker-end="url(#arrow)"/>
<line x1="600" y1="410" x2="644" y2="410" stroke="#94A3B8" stroke-width="3" stroke-linecap="round" marker-end="url(#arrow)"/>
<line x1="880" y1="410" x2="924" y2="410" stroke="#94A3B8" stroke-width="3" stroke-linecap="round" marker-end="url(#arrow)"/>
<line x1="1160" y1="410" x2="1204" y2="410" stroke="#94A3B8" stroke-width="3" stroke-linecap="round" marker-end="url(#arrow)"/>
<line x1="1440" y1="410" x2="1484" y2="410" stroke="#94A3B8" stroke-width="3" stroke-linecap="round" marker-end="url(#arrow)"/>
<path d="M1615 585 C1590 805 1050 805 1035 585" fill="none" stroke="#477AA6" stroke-width="4" stroke-linecap="round" stroke-linejoin="round" marker-end="url(#arrow)"/>
<text x="1260" y="760" font-size="18" font-weight="820" fill="#477AA6" text-anchor="middle">Revision loop</text>
<rect x="350" y="720" width="1100" height="118" rx="30" fill="#102033" stroke="none" stroke-width="2" filter="url(#shadow)"/>
<text x="900" y="770" font-size="36" font-weight="850" fill="#FFFFFF" text-anchor="middle">ccfa.yaml</text>
<text x="900" y="805" font-size="18" font-weight="500" fill="#D8E6F2" text-anchor="middle">shared project state</text>
<rect x="410" y="860" width="128" height="38" rx="19" fill="#1F6F8B" stroke="none" stroke-width="2" />
<text x="474" y="885" font-size="15" font-weight="760" fill="#FFFFFF" text-anchor="middle">idea</text>
<rect x="560" y="860" width="128" height="38" rx="19" fill="#1F6F8B" stroke="none" stroke-width="2" />
<text x="624" y="885" font-size="15" font-weight="760" fill="#FFFFFF" text-anchor="middle">literature</text>
<rect x="710" y="860" width="128" height="38" rx="19" fill="#1F6F8B" stroke="none" stroke-width="2" />
<text x="774" y="885" font-size="15" font-weight="760" fill="#FFFFFF" text-anchor="middle">experiments</text>
<rect x="860" y="860" width="128" height="38" rx="19" fill="#1F6F8B" stroke="none" stroke-width="2" />
<text x="924" y="885" font-size="15" font-weight="760" fill="#FFFFFF" text-anchor="middle">manuscript</text>
<rect x="1010" y="860" width="128" height="38" rx="19" fill="#1F6F8B" stroke="none" stroke-width="2" />
<text x="1074" y="885" font-size="15" font-weight="760" fill="#FFFFFF" text-anchor="middle">reviews</text>
<rect x="1160" y="860" width="128" height="38" rx="19" fill="#1F6F8B" stroke="none" stroke-width="2" />
<text x="1224" y="885" font-size="15" font-weight="760" fill="#FFFFFF" text-anchor="middle">submission</text>
<rect x="1310" y="860" width="128" height="38" rx="19" fill="#1F6F8B" stroke="none" stroke-width="2" />
<text x="1374" y="885" font-size="15" font-weight="760" fill="#FFFFFF" text-anchor="middle">ledger</text>
<rect x="420" y="920" width="960" height="246" rx="24" fill="#FFFFFF" stroke="none" stroke-width="2" filter="url(#shadow)"/>
<rect x="420" y="920" width="960" height="52" rx="24" fill="#5D6977" stroke="none" stroke-width="2" />
<text x="442" y="954" font-size="18" font-weight="820" fill="#FFFFFF" text-anchor="start">Governance</text>
<rect x="438" y="990" width="924" height="66" rx="18" fill="#FFFFFF" stroke="none" stroke-width="2" filter="url(#shadow)"/>
<rect x="438" y="990" width="8" height="66" rx="18" fill="#5D6977" stroke="none" stroke-width="2" />
<text x="462" y="1024" font-size="15" font-weight="820" fill="#15202B" text-anchor="start">ccf-common</text>
<text x="462" y="1049" font-size="13" font-weight="520" fill="#5A6775" text-anchor="start">routing, policy, source</text>
<text x="462" y="1067" font-size="13" font-weight="520" fill="#5A6775" text-anchor="start">registry</text>
<rect x="438" y="1072" width="924" height="66" rx="18" fill="#FFFFFF" stroke="none" stroke-width="2" filter="url(#shadow)"/>
<rect x="438" y="1072" width="8" height="66" rx="18" fill="#5D6977" stroke="none" stroke-width="2" />
<text x="462" y="1106" font-size="15" font-weight="820" fill="#15202B" text-anchor="start">ccf-skill-forger</text>
<text x="462" y="1131" font-size="13" font-weight="520" fill="#5A6775" text-anchor="start">skills, docs, diagrams,</text>
<text x="462" y="1149" font-size="13" font-weight="520" fill="#5A6775" text-anchor="start">release</text>
</svg>
