<svg xmlns="http://www.w3.org/2000/svg" width="1800" height="1400" viewBox="0 0 1800 1400">
<defs>
<linearGradient id="header" x1="0" y1="0" x2="1" y2="1"><stop offset="0" stop-color="#102033"/><stop offset="0.58" stop-color="#1F6F8B"/><stop offset="1" stop-color="#7A4E9B"/></linearGradient>
<filter id="shadow" x="-20%" y="-20%" width="140%" height="160%"><feDropShadow dx="0" dy="12" stdDeviation="12" flood-color="#0B1826" flood-opacity="0.13"/></filter>
<marker id="arrow" markerWidth="13" markerHeight="13" refX="11" refY="6.5" orient="auto"><path d="M2,2 L11,6.5 L2,11 Z" fill="#7B8794"/></marker>
</defs>
<style>text{font-family:Microsoft YaHei, Segoe UI, Arial, sans-serif;dominant-baseline:auto} .mono{font-family:Consolas,Menlo,monospace}</style>
<rect x="0" y="0" width="1800" height="1400" rx="0" fill="#F6F8FB" stroke="none" stroke-width="2" />
<rect x="0" y="0" width="1800" height="158" rx="0" fill="url(#header)" stroke="none" stroke-width="2" />
<text x="72" y="66" font-size="44" font-weight="850" fill="#FFFFFF" text-anchor="start">CCFA 技能家族逻辑</text>
<text x="72" y="108" font-size="20" font-weight="500" fill="#D8E6F2" text-anchor="start">主研究链路、共享状态、治理层和修改回路。</text>
<text x="1728" y="132" font-size="16" font-weight="650" fill="#D8E6F2" text-anchor="end">v0.5 · 15 个 owner skills · 一个论文项目闭环</text>
<rect x="70" y="228" width="500" height="246" rx="24" fill="#FFFFFF" stroke="none" stroke-width="2" filter="url(#shadow)"/>
<rect x="70" y="228" width="500" height="52" rx="24" fill="#1F7A8C" stroke="none" stroke-width="2" />
<text x="92" y="262" font-size="18" font-weight="820" fill="#FFFFFF" text-anchor="start">搭建</text>
<rect x="88" y="298" width="464" height="66" rx="18" fill="#FFFFFF" stroke="none" stroke-width="2" filter="url(#shadow)"/>
<rect x="88" y="298" width="8" height="66" rx="18" fill="#1F7A8C" stroke="none" stroke-width="2" />
<text x="112" y="332" font-size="15" font-weight="820" fill="#15202B" text-anchor="start">ccf-project-scaffolder</text>
<text x="112" y="357" font-size="13" font-weight="520" fill="#5A6775" text-anchor="start">目录、模板、ccfa.yaml</text>
<rect x="88" y="380" width="464" height="66" rx="18" fill="#FFFFFF" stroke="none" stroke-width="2" filter="url(#shadow)"/>
<rect x="88" y="380" width="8" height="66" rx="18" fill="#1F7A8C" stroke="none" stroke-width="2" />
<text x="112" y="414" font-size="15" font-weight="820" fill="#15202B" text-anchor="start">ccf-pipeline-orchestrator</text>
<text x="112" y="439" font-size="13" font-weight="520" fill="#5A6775" text-anchor="start">阶段计划、gate、handoff</text>
<rect x="650" y="228" width="500" height="246" rx="24" fill="#FFFFFF" stroke="none" stroke-width="2" filter="url(#shadow)"/>
<rect x="650" y="228" width="500" height="52" rx="24" fill="#D2673D" stroke="none" stroke-width="2" />
<text x="672" y="262" font-size="18" font-weight="820" fill="#FFFFFF" text-anchor="start">选题成型</text>
<rect x="668" y="298" width="464" height="66" rx="18" fill="#FFFFFF" stroke="none" stroke-width="2" filter="url(#shadow)"/>
<rect x="668" y="298" width="8" height="66" rx="18" fill="#D2673D" stroke="none" stroke-width="2" />
<text x="692" y="332" font-size="15" font-weight="820" fill="#15202B" text-anchor="start">ccf-idea-optimizer</text>
<text x="692" y="357" font-size="13" font-weight="520" fill="#5A6775" text-anchor="start">探索、救援、塑形</text>
<rect x="668" y="380" width="464" height="66" rx="18" fill="#FFFFFF" stroke="none" stroke-width="2" filter="url(#shadow)"/>
<rect x="668" y="380" width="8" height="66" rx="18" fill="#D2673D" stroke="none" stroke-width="2" />
<text x="692" y="414" font-size="15" font-weight="820" fill="#15202B" text-anchor="start">ccf-idea-reviewer</text>
<text x="692" y="439" font-size="13" font-weight="520" fill="#5A6775" text-anchor="start">评分、排序、阶段风险</text>
<rect x="1230" y="228" width="500" height="328" rx="24" fill="#FFFFFF" stroke="none" stroke-width="2" filter="url(#shadow)"/>
<rect x="1230" y="228" width="500" height="52" rx="24" fill="#6657A8" stroke="none" stroke-width="2" />
<text x="1252" y="262" font-size="18" font-weight="820" fill="#FFFFFF" text-anchor="start">证据</text>
<rect x="1248" y="298" width="464" height="66" rx="18" fill="#FFFFFF" stroke="none" stroke-width="2" filter="url(#shadow)"/>
<rect x="1248" y="298" width="8" height="66" rx="18" fill="#6657A8" stroke="none" stroke-width="2" />
<text x="1272" y="332" font-size="15" font-weight="820" fill="#15202B" text-anchor="start">ccf-literature-monitor</text>
<text x="1272" y="357" font-size="13" font-weight="520" fill="#5A6775" text-anchor="start">新论文、竞品、overlap</text>
<rect x="1248" y="380" width="464" height="66" rx="18" fill="#FFFFFF" stroke="none" stroke-width="2" filter="url(#shadow)"/>
<rect x="1248" y="380" width="8" height="66" rx="18" fill="#6657A8" stroke="none" stroke-width="2" />
<text x="1272" y="414" font-size="15" font-weight="820" fill="#15202B" text-anchor="start">ccf-literature-searcher</text>
<text x="1272" y="439" font-size="13" font-weight="520" fill="#5A6775" text-anchor="start">prior art、open gap、benchmark</text>
<rect x="1248" y="462" width="464" height="66" rx="18" fill="#FFFFFF" stroke="none" stroke-width="2" filter="url(#shadow)"/>
<rect x="1248" y="462" width="8" height="66" rx="18" fill="#6657A8" stroke="none" stroke-width="2" />
<text x="1272" y="496" font-size="15" font-weight="820" fill="#15202B" text-anchor="start">ccf-experiment-designer</text>
<text x="1272" y="521" font-size="13" font-weight="520" fill="#5A6775" text-anchor="start">baseline、消融、真实结果表</text>
<rect x="70" y="560" width="500" height="246" rx="24" fill="#FFFFFF" stroke="none" stroke-width="2" filter="url(#shadow)"/>
<rect x="70" y="560" width="500" height="52" rx="24" fill="#2D3742" stroke="none" stroke-width="2" />
<text x="92" y="594" font-size="18" font-weight="820" fill="#FFFFFF" text-anchor="start">正文</text>
<rect x="88" y="630" width="464" height="66" rx="18" fill="#FFFFFF" stroke="none" stroke-width="2" filter="url(#shadow)"/>
<rect x="88" y="630" width="8" height="66" rx="18" fill="#2D3742" stroke="none" stroke-width="2" />
<text x="112" y="664" font-size="15" font-weight="820" fill="#15202B" text-anchor="start">ccf-paper-to-exemplar</text>
<text x="112" y="689" font-size="13" font-weight="520" fill="#5A6775" text-anchor="start">PDF 转写作范例卡</text>
<rect x="88" y="712" width="464" height="66" rx="18" fill="#FFFFFF" stroke="none" stroke-width="2" filter="url(#shadow)"/>
<rect x="88" y="712" width="8" height="66" rx="18" fill="#2D3742" stroke="none" stroke-width="2" />
<text x="112" y="746" font-size="15" font-weight="820" fill="#15202B" text-anchor="start">ccf-paper-writer</text>
<text x="112" y="771" font-size="13" font-weight="520" fill="#5A6775" text-anchor="start">起草、篇幅、压缩、展示</text>
<rect x="650" y="560" width="500" height="246" rx="24" fill="#FFFFFF" stroke="none" stroke-width="2" filter="url(#shadow)"/>
<rect x="650" y="560" width="500" height="52" rx="24" fill="#B58B2A" stroke="none" stroke-width="2" />
<text x="672" y="594" font-size="18" font-weight="820" fill="#FFFFFF" text-anchor="start">质量保障</text>
<rect x="668" y="630" width="464" height="66" rx="18" fill="#FFFFFF" stroke="none" stroke-width="2" filter="url(#shadow)"/>
<rect x="668" y="630" width="8" height="66" rx="18" fill="#B58B2A" stroke="none" stroke-width="2" />
<text x="692" y="664" font-size="15" font-weight="820" fill="#15202B" text-anchor="start">ccf-paper-reviewer</text>
<text x="692" y="689" font-size="13" font-weight="520" fill="#5A6775" text-anchor="start">科学评审和写作评审</text>
<rect x="668" y="712" width="464" height="66" rx="18" fill="#FFFFFF" stroke="none" stroke-width="2" filter="url(#shadow)"/>
<rect x="668" y="712" width="8" height="66" rx="18" fill="#8A4F86" stroke="none" stroke-width="2" />
<text x="692" y="746" font-size="15" font-weight="820" fill="#15202B" text-anchor="start">ccf-integrity-auditor</text>
<text x="692" y="771" font-size="13" font-weight="520" fill="#5A6775" text-anchor="start">claim、数字、引用</text>
<rect x="1230" y="560" width="500" height="246" rx="24" fill="#FFFFFF" stroke="none" stroke-width="2" filter="url(#shadow)"/>
<rect x="1230" y="560" width="500" height="52" rx="24" fill="#BA4C5E" stroke="none" stroke-width="2" />
<text x="1252" y="594" font-size="18" font-weight="820" fill="#FFFFFF" text-anchor="start">投稿 / 回应</text>
<rect x="1248" y="630" width="464" height="66" rx="18" fill="#FFFFFF" stroke="none" stroke-width="2" filter="url(#shadow)"/>
<rect x="1248" y="630" width="8" height="66" rx="18" fill="#BA4C5E" stroke="none" stroke-width="2" />
<text x="1272" y="664" font-size="15" font-weight="820" fill="#15202B" text-anchor="start">ccf-submission-checker</text>
<text x="1272" y="689" font-size="13" font-weight="520" fill="#5A6775" text-anchor="start">会议、PDF、匿名、artifact</text>
<rect x="1248" y="712" width="464" height="66" rx="18" fill="#FFFFFF" stroke="none" stroke-width="2" filter="url(#shadow)"/>
<rect x="1248" y="712" width="8" height="66" rx="18" fill="#477AA6" stroke="none" stroke-width="2" />
<text x="1272" y="746" font-size="15" font-weight="820" fill="#15202B" text-anchor="start">ccf-rebuttal-writer</text>
<text x="1272" y="771" font-size="13" font-weight="520" fill="#5A6775" text-anchor="start">回应、ledger、重投</text>
<line x1="570" y1="370" x2="650" y2="370" stroke="#94A3B8" stroke-width="3" stroke-linecap="round" marker-end="url(#arrow)"/>
<line x1="1150" y1="370" x2="1230" y2="370" stroke="#94A3B8" stroke-width="3" stroke-linecap="round" marker-end="url(#arrow)"/>
<path d="M1480 492 C1480 530 320 530 320 560" fill="none" stroke="#94A3B8" stroke-width="3" stroke-linecap="round" stroke-linejoin="round" marker-end="url(#arrow)"/>
<line x1="570" y1="680" x2="650" y2="680" stroke="#94A3B8" stroke-width="3" stroke-linecap="round" marker-end="url(#arrow)"/>
<line x1="1150" y1="680" x2="1230" y2="680" stroke="#94A3B8" stroke-width="3" stroke-linecap="round" marker-end="url(#arrow)"/>
<path d="M1480 828 C1420 910 390 910 320 828" fill="none" stroke="#477AA6" stroke-width="4" stroke-linecap="round" stroke-linejoin="round" marker-end="url(#arrow)"/>
<text x="900" y="890" font-size="20" font-weight="820" fill="#477AA6" text-anchor="middle">修改回路</text>
<rect x="350" y="930" width="1100" height="118" rx="30" fill="#102033" stroke="none" stroke-width="2" filter="url(#shadow)"/>
<text x="900" y="980" font-size="36" font-weight="850" fill="#FFFFFF" text-anchor="middle">ccfa.yaml</text>
<text x="900" y="1015" font-size="18" font-weight="500" fill="#D8E6F2" text-anchor="middle">共享项目状态</text>
<rect x="410" y="1068" width="128" height="38" rx="19" fill="#1F6F8B" stroke="none" stroke-width="2" />
<text x="474" y="1093" font-size="15" font-weight="760" fill="#FFFFFF" text-anchor="middle">idea</text>
<rect x="560" y="1068" width="128" height="38" rx="19" fill="#1F6F8B" stroke="none" stroke-width="2" />
<text x="624" y="1093" font-size="15" font-weight="760" fill="#FFFFFF" text-anchor="middle">literature</text>
<rect x="710" y="1068" width="128" height="38" rx="19" fill="#1F6F8B" stroke="none" stroke-width="2" />
<text x="774" y="1093" font-size="15" font-weight="760" fill="#FFFFFF" text-anchor="middle">experiments</text>
<rect x="860" y="1068" width="128" height="38" rx="19" fill="#1F6F8B" stroke="none" stroke-width="2" />
<text x="924" y="1093" font-size="15" font-weight="760" fill="#FFFFFF" text-anchor="middle">manuscript</text>
<rect x="1010" y="1068" width="128" height="38" rx="19" fill="#1F6F8B" stroke="none" stroke-width="2" />
<text x="1074" y="1093" font-size="15" font-weight="760" fill="#FFFFFF" text-anchor="middle">reviews</text>
<rect x="1160" y="1068" width="128" height="38" rx="19" fill="#1F6F8B" stroke="none" stroke-width="2" />
<text x="1224" y="1093" font-size="15" font-weight="760" fill="#FFFFFF" text-anchor="middle">submission</text>
<rect x="1310" y="1068" width="128" height="38" rx="19" fill="#1F6F8B" stroke="none" stroke-width="2" />
<text x="1374" y="1093" font-size="15" font-weight="760" fill="#FFFFFF" text-anchor="middle">ledger</text>
<rect x="420" y="1120" width="960" height="246" rx="24" fill="#FFFFFF" stroke="none" stroke-width="2" filter="url(#shadow)"/>
<rect x="420" y="1120" width="960" height="52" rx="24" fill="#5D6977" stroke="none" stroke-width="2" />
<text x="442" y="1154" font-size="18" font-weight="820" fill="#FFFFFF" text-anchor="start">治理层</text>
<rect x="438" y="1190" width="924" height="66" rx="18" fill="#FFFFFF" stroke="none" stroke-width="2" filter="url(#shadow)"/>
<rect x="438" y="1190" width="8" height="66" rx="18" fill="#5D6977" stroke="none" stroke-width="2" />
<text x="462" y="1224" font-size="15" font-weight="820" fill="#15202B" text-anchor="start">ccf-common</text>
<text x="462" y="1249" font-size="13" font-weight="520" fill="#5A6775" text-anchor="start">路由、策略、source registry</text>
<rect x="438" y="1272" width="924" height="66" rx="18" fill="#FFFFFF" stroke="none" stroke-width="2" filter="url(#shadow)"/>
<rect x="438" y="1272" width="8" height="66" rx="18" fill="#5D6977" stroke="none" stroke-width="2" />
<text x="462" y="1306" font-size="15" font-weight="820" fill="#15202B" text-anchor="start">ccf-skill-forger</text>
<text x="462" y="1331" font-size="13" font-weight="520" fill="#5A6775" text-anchor="start">skills、文档、图、release</text>
</svg>
