<svg xmlns="http://www.w3.org/2000/svg" width="1800" height="1120" viewBox="0 0 1800 1120">
<defs>
<linearGradient id="header" x1="0" y1="0" x2="1" y2="1"><stop offset="0" stop-color="#102033"/><stop offset="0.58" stop-color="#1F6F8B"/><stop offset="1" stop-color="#7A4E9B"/></linearGradient>
<filter id="shadow" x="-20%" y="-20%" width="140%" height="160%"><feDropShadow dx="0" dy="12" stdDeviation="12" flood-color="#0B1826" flood-opacity="0.13"/></filter>
<marker id="arrow" markerWidth="13" markerHeight="13" refX="11" refY="6.5" orient="auto"><path d="M2,2 L11,6.5 L2,11 Z" fill="#7B8794"/></marker>
</defs>
<style>text{font-family:Microsoft JhengHei, Segoe UI, Arial, sans-serif;dominant-baseline:auto} .mono{font-family:Consolas,Menlo,monospace}</style>
<rect x="0" y="0" width="1800" height="1120" rx="0" fill="#F6F8FB" stroke="none" stroke-width="2" />
<rect x="0" y="0" width="1800" height="158" rx="0" fill="url(#header)" stroke="none" stroke-width="2" />
<text x="72" y="66" font-size="44" font-weight="850" fill="#FFFFFF" text-anchor="start">路由邊界</text>
<text x="72" y="108" font-size="20" font-weight="500" fill="#D8E6F2" text-anchor="start">相似請求只進入一個 owner skill，避免觸發衝突。</text>
<text x="1728" y="132" font-size="16" font-weight="650" fill="#D8E6F2" text-anchor="end">v0.5 · 15 個 owner skills · 一個論文專案閉環</text>
<rect x="90" y="230" width="650" height="104" rx="22" fill="#FFFFFF" stroke="none" stroke-width="2" filter="url(#shadow)"/>
<rect x="114" y="254" width="230" height="38" rx="19" fill="#D2673D" stroke="none" stroke-width="2" />
<text x="229" y="279" font-size="15" font-weight="760" fill="#FFFFFF" text-anchor="middle">優化 / 救 idea</text>
<text x="375" y="277" font-size="20" font-weight="820" fill="#15202B" text-anchor="start">ccf-idea-optimizer</text>
<text x="375" y="306" font-size="14" font-weight="520" fill="#5A6775" text-anchor="start">探索、救援、塑形</text>
<rect x="1000" y="230" width="650" height="104" rx="22" fill="#FFFFFF" stroke="none" stroke-width="2" filter="url(#shadow)"/>
<rect x="1024" y="254" width="230" height="38" rx="19" fill="#D2673D" stroke="none" stroke-width="2" />
<text x="1139" y="279" font-size="15" font-weight="760" fill="#FFFFFF" text-anchor="middle">給 idea 排名評分</text>
<text x="1285" y="277" font-size="20" font-weight="820" fill="#15202B" text-anchor="start">ccf-idea-reviewer</text>
<text x="1285" y="306" font-size="14" font-weight="520" fill="#5A6775" text-anchor="start">評分、排序、階段風險</text>
<text x="900" y="292" font-size="28" font-weight="850" fill="#94A3B8" text-anchor="middle">vs</text>
<rect x="90" y="365" width="650" height="104" rx="22" fill="#FFFFFF" stroke="none" stroke-width="2" filter="url(#shadow)"/>
<rect x="114" y="389" width="230" height="38" rx="19" fill="#6657A8" stroke="none" stroke-width="2" />
<text x="229" y="414" font-size="15" font-weight="760" fill="#FFFFFF" text-anchor="middle">監控新論文</text>
<text x="375" y="412" font-size="20" font-weight="820" fill="#15202B" text-anchor="start">ccf-literature-monitor</text>
<text x="375" y="441" font-size="14" font-weight="520" fill="#5A6775" text-anchor="start">新論文、競品、overlap</text>
<rect x="1000" y="365" width="650" height="104" rx="22" fill="#FFFFFF" stroke="none" stroke-width="2" filter="url(#shadow)"/>
<rect x="1024" y="389" width="230" height="38" rx="19" fill="#6657A8" stroke="none" stroke-width="2" />
<text x="1139" y="414" font-size="15" font-weight="760" fill="#FFFFFF" text-anchor="middle">深度相關工作</text>
<text x="1285" y="412" font-size="20" font-weight="820" fill="#15202B" text-anchor="start">ccf-literature-searcher</text>
<text x="1285" y="441" font-size="14" font-weight="520" fill="#5A6775" text-anchor="start">prior art、open gap、benchmark</text>
<text x="900" y="427" font-size="28" font-weight="850" fill="#94A3B8" text-anchor="middle">vs</text>
<rect x="90" y="500" width="650" height="104" rx="22" fill="#FFFFFF" stroke="none" stroke-width="2" filter="url(#shadow)"/>
<rect x="114" y="524" width="230" height="38" rx="19" fill="#8A4F86" stroke="none" stroke-width="2" />
<text x="229" y="549" font-size="15" font-weight="760" fill="#FFFFFF" text-anchor="middle">稽核已引用文獻</text>
<text x="375" y="547" font-size="20" font-weight="820" fill="#15202B" text-anchor="start">ccf-integrity-auditor</text>
<text x="375" y="576" font-size="14" font-weight="520" fill="#5A6775" text-anchor="start">claim、數字、引用</text>
<rect x="1000" y="500" width="650" height="104" rx="22" fill="#FFFFFF" stroke="none" stroke-width="2" filter="url(#shadow)"/>
<rect x="1024" y="524" width="230" height="38" rx="19" fill="#2D3742" stroke="none" stroke-width="2" />
<text x="1139" y="549" font-size="15" font-weight="760" fill="#FFFFFF" text-anchor="middle">抽取寫作範例</text>
<text x="1285" y="547" font-size="20" font-weight="820" fill="#15202B" text-anchor="start">ccf-paper-to-exemplar</text>
<text x="1285" y="576" font-size="14" font-weight="520" fill="#5A6775" text-anchor="start">PDF 轉寫作範例卡</text>
<text x="900" y="562" font-size="28" font-weight="850" fill="#94A3B8" text-anchor="middle">vs</text>
<rect x="90" y="635" width="650" height="104" rx="22" fill="#FFFFFF" stroke="none" stroke-width="2" filter="url(#shadow)"/>
<rect x="114" y="659" width="230" height="38" rx="19" fill="#6657A8" stroke="none" stroke-width="2" />
<text x="229" y="684" font-size="15" font-weight="760" fill="#FFFFFF" text-anchor="middle">設計實驗</text>
<text x="375" y="682" font-size="20" font-weight="820" fill="#15202B" text-anchor="start">ccf-experiment-designer</text>
<text x="375" y="711" font-size="14" font-weight="520" fill="#5A6775" text-anchor="start">baseline、消融、真實結果表</text>
<rect x="1000" y="635" width="650" height="104" rx="22" fill="#FFFFFF" stroke="none" stroke-width="2" filter="url(#shadow)"/>
<rect x="1024" y="659" width="230" height="38" rx="19" fill="#2D3742" stroke="none" stroke-width="2" />
<text x="1139" y="684" font-size="15" font-weight="760" fill="#FFFFFF" text-anchor="middle">寫正文</text>
<text x="1285" y="682" font-size="20" font-weight="820" fill="#15202B" text-anchor="start">ccf-paper-writer</text>
<text x="1285" y="711" font-size="14" font-weight="520" fill="#5A6775" text-anchor="start">起草、篇幅、壓縮、展示</text>
<text x="900" y="697" font-size="28" font-weight="850" fill="#94A3B8" text-anchor="middle">vs</text>
<rect x="90" y="770" width="650" height="104" rx="22" fill="#FFFFFF" stroke="none" stroke-width="2" filter="url(#shadow)"/>
<rect x="114" y="794" width="230" height="38" rx="19" fill="#B58B2A" stroke="none" stroke-width="2" />
<text x="229" y="819" font-size="15" font-weight="760" fill="#FFFFFF" text-anchor="middle">判斷論文品質</text>
<text x="375" y="817" font-size="20" font-weight="820" fill="#15202B" text-anchor="start">ccf-paper-reviewer</text>
<text x="375" y="846" font-size="14" font-weight="520" fill="#5A6775" text-anchor="start">科學審稿和寫作審稿</text>
<rect x="1000" y="770" width="650" height="104" rx="22" fill="#FFFFFF" stroke="none" stroke-width="2" filter="url(#shadow)"/>
<rect x="1024" y="794" width="230" height="38" rx="19" fill="#BA4C5E" stroke="none" stroke-width="2" />
<text x="1139" y="819" font-size="15" font-weight="760" fill="#FFFFFF" text-anchor="middle">檢查投稿包</text>
<text x="1285" y="817" font-size="20" font-weight="820" fill="#15202B" text-anchor="start">ccf-submission-checker</text>
<text x="1285" y="846" font-size="14" font-weight="520" fill="#5A6775" text-anchor="start">會議、PDF、匿名、artifact</text>
<text x="900" y="832" font-size="28" font-weight="850" fill="#94A3B8" text-anchor="middle">vs</text>
<rect x="90" y="905" width="650" height="104" rx="22" fill="#FFFFFF" stroke="none" stroke-width="2" filter="url(#shadow)"/>
<rect x="114" y="929" width="230" height="38" rx="19" fill="#477AA6" stroke="none" stroke-width="2" />
<text x="229" y="954" font-size="15" font-weight="760" fill="#FFFFFF" text-anchor="middle">回覆審稿人</text>
<text x="375" y="952" font-size="20" font-weight="820" fill="#15202B" text-anchor="start">ccf-rebuttal-writer</text>
<text x="375" y="981" font-size="14" font-weight="520" fill="#5A6775" text-anchor="start">回應、ledger、重投</text>
<rect x="1000" y="905" width="650" height="104" rx="22" fill="#FFFFFF" stroke="none" stroke-width="2" filter="url(#shadow)"/>
<rect x="1024" y="929" width="230" height="38" rx="19" fill="#5D6977" stroke="none" stroke-width="2" />
<text x="1139" y="954" font-size="15" font-weight="760" fill="#FFFFFF" text-anchor="middle">維護 skills / SVG</text>
<text x="1285" y="952" font-size="20" font-weight="820" fill="#15202B" text-anchor="start">ccf-skill-forger</text>
<text x="1285" y="981" font-size="14" font-weight="520" fill="#5A6775" text-anchor="start">skills、文件、圖、release</text>
<text x="900" y="967" font-size="28" font-weight="850" fill="#94A3B8" text-anchor="middle">vs</text>
</svg>
