<svg xmlns="http://www.w3.org/2000/svg" width="1800" height="900" viewBox="0 0 1800 900">
<defs>
<filter id="shadow" x="-20%" y="-20%" width="140%" height="150%"><feDropShadow dx="0" dy="10" stdDeviation="10" flood-color="#0B1826" flood-opacity="0.12"/></filter>
<marker id="arrow" markerWidth="12" markerHeight="12" refX="10" refY="6" orient="auto"><path d="M2,2 L10,6 L2,10 Z" fill="#8D9AA8"/></marker>
</defs>
<style>text{font-family:Inter, Segoe UI, Arial, sans-serif;dominant-baseline:auto} .mono{font-family:Consolas,Menlo,monospace}</style>
<rect x="0" y="0" width="1800" height="900" rx="0" fill="#F3F6F9" stroke="none" stroke-width="2" />
<rect x="0" y="0" width="1800" height="170" rx="0" fill="#102033" stroke="none" stroke-width="2" />
<text x="70" y="72" font-size="38" font-weight="820" fill="#FFFFFF" text-anchor="start">Paper Project Workflow</text>
<text x="70" y="112" font-size="18" font-weight="450" fill="#D6E1EC" text-anchor="start">Default path from original idea to NeurIPS-style rebuttal.</text>
<circle cx="90" cy="300" r="46" fill="#1E7894" filter="url(#shadow)"/>
<text x="90" y="310" font-size="30" font-weight="850" fill="#FFFFFF" text-anchor="middle">1</text>
<text x="20" y="385" font-size="20" font-weight="800" fill="#17212B" text-anchor="start">setup</text>
<text x="20" y="414" font-size="13" font-weight="600" fill="#536171" text-anchor="start">project-scaffolder</text>
<line x1="145" y1="300" x2="225" y2="300" stroke="#CAD4DE" stroke-width="3" stroke-linecap="round" marker-end="url(#arrow)"/>
<circle cx="280" cy="300" r="46" fill="#1E7894" filter="url(#shadow)"/>
<text x="280" y="310" font-size="30" font-weight="850" fill="#FFFFFF" text-anchor="middle">2</text>
<text x="210" y="385" font-size="20" font-weight="800" fill="#17212B" text-anchor="start">plan</text>
<text x="210" y="414" font-size="13" font-weight="600" fill="#536171" text-anchor="start">pipeline-orchestrator</text>
<line x1="335" y1="300" x2="415" y2="300" stroke="#CAD4DE" stroke-width="3" stroke-linecap="round" marker-end="url(#arrow)"/>
<circle cx="470" cy="300" r="46" fill="#C05C35" filter="url(#shadow)"/>
<text x="470" y="310" font-size="30" font-weight="850" fill="#FFFFFF" text-anchor="middle">3</text>
<text x="400" y="385" font-size="20" font-weight="800" fill="#17212B" text-anchor="start">idea</text>
<text x="400" y="414" font-size="13" font-weight="600" fill="#536171" text-anchor="start">idea-optimizer</text>
<line x1="525" y1="300" x2="605" y2="300" stroke="#CAD4DE" stroke-width="3" stroke-linecap="round" marker-end="url(#arrow)"/>
<circle cx="660" cy="300" r="46" fill="#6F5AA6" filter="url(#shadow)"/>
<text x="660" y="310" font-size="30" font-weight="850" fill="#FFFFFF" text-anchor="middle">4</text>
<text x="590" y="385" font-size="20" font-weight="800" fill="#17212B" text-anchor="start">literature</text>
<text x="590" y="414" font-size="13" font-weight="600" fill="#536171" text-anchor="start">literature-searcher</text>
<line x1="715" y1="300" x2="795" y2="300" stroke="#CAD4DE" stroke-width="3" stroke-linecap="round" marker-end="url(#arrow)"/>
<circle cx="850" cy="300" r="46" fill="#6F5AA6" filter="url(#shadow)"/>
<text x="850" y="310" font-size="30" font-weight="850" fill="#FFFFFF" text-anchor="middle">5</text>
<text x="780" y="385" font-size="20" font-weight="800" fill="#17212B" text-anchor="start">experiment</text>
<text x="780" y="414" font-size="13" font-weight="600" fill="#536171" text-anchor="start">experiment-designer</text>
<line x1="905" y1="300" x2="985" y2="300" stroke="#CAD4DE" stroke-width="3" stroke-linecap="round" marker-end="url(#arrow)"/>
<circle cx="1040" cy="300" r="46" fill="#333B46" filter="url(#shadow)"/>
<text x="1040" y="310" font-size="30" font-weight="850" fill="#FFFFFF" text-anchor="middle">6</text>
<text x="970" y="385" font-size="20" font-weight="800" fill="#17212B" text-anchor="start">write</text>
<text x="970" y="414" font-size="13" font-weight="600" fill="#536171" text-anchor="start">paper-writer</text>
<line x1="1095" y1="300" x2="1175" y2="300" stroke="#CAD4DE" stroke-width="3" stroke-linecap="round" marker-end="url(#arrow)"/>
<circle cx="1230" cy="300" r="46" fill="#A78328" filter="url(#shadow)"/>
<text x="1230" y="310" font-size="30" font-weight="850" fill="#FFFFFF" text-anchor="middle">7</text>
<text x="1160" y="385" font-size="20" font-weight="800" fill="#17212B" text-anchor="start">review</text>
<text x="1160" y="414" font-size="13" font-weight="600" fill="#536171" text-anchor="start">paper-reviewer</text>
<line x1="1285" y1="300" x2="1365" y2="300" stroke="#CAD4DE" stroke-width="3" stroke-linecap="round" marker-end="url(#arrow)"/>
<circle cx="1420" cy="300" r="46" fill="#BA4C5E" filter="url(#shadow)"/>
<text x="1420" y="310" font-size="30" font-weight="850" fill="#FFFFFF" text-anchor="middle">8</text>
<text x="1350" y="385" font-size="20" font-weight="800" fill="#17212B" text-anchor="start">submit</text>
<text x="1350" y="414" font-size="13" font-weight="600" fill="#536171" text-anchor="start">submission-checker</text>
<line x1="1475" y1="300" x2="1555" y2="300" stroke="#CAD4DE" stroke-width="3" stroke-linecap="round" marker-end="url(#arrow)"/>
<circle cx="1610" cy="300" r="46" fill="#477AA6" filter="url(#shadow)"/>
<text x="1610" y="310" font-size="30" font-weight="850" fill="#FFFFFF" text-anchor="middle">9</text>
<text x="1540" y="385" font-size="20" font-weight="800" fill="#17212B" text-anchor="start">respond</text>
<text x="1540" y="414" font-size="13" font-weight="600" fill="#536171" text-anchor="start">rebuttal-writer</text>
<rect x="360" y="610" width="360" height="64" rx="14" fill="#FFFFFF" stroke="#C05C35" stroke-width="2" filter="url(#shadow)"/>
<circle cx="384" cy="642" r="7" fill="#C05C35"/>
<text x="404" y="637" font-size="15" font-weight="780" fill="#17212B" text-anchor="start">ccf-idea-reviewer</text>
<text x="404" y="658" font-size="13" font-weight="500" fill="#536171" text-anchor="start">score idea</text>
<rect x="780" y="610" width="360" height="64" rx="14" fill="#FFFFFF" stroke="#854B82" stroke-width="2" filter="url(#shadow)"/>
<circle cx="804" cy="642" r="7" fill="#854B82"/>
<text x="824" y="637" font-size="15" font-weight="780" fill="#17212B" text-anchor="start">ccf-integrity-auditor</text>
<text x="824" y="658" font-size="13" font-weight="500" fill="#536171" text-anchor="start">claims + citations</text>
<rect x="1200" y="610" width="360" height="64" rx="14" fill="#FFFFFF" stroke="#5A6672" stroke-width="2" filter="url(#shadow)"/>
<circle cx="1224" cy="642" r="7" fill="#5A6672"/>
<text x="1244" y="637" font-size="15" font-weight="780" fill="#17212B" text-anchor="start">ccf-common</text>
<text x="1244" y="658" font-size="13" font-weight="500" fill="#536171" text-anchor="start">shared policy</text>
<rect x="1200" y="710" width="360" height="64" rx="14" fill="#FFFFFF" stroke="#5A6672" stroke-width="2" filter="url(#shadow)"/>
<circle cx="1224" cy="742" r="7" fill="#5A6672"/>
<text x="1244" y="737" font-size="15" font-weight="780" fill="#17212B" text-anchor="start">ccf-skill-forger</text>
<text x="1244" y="758" font-size="13" font-weight="500" fill="#536171" text-anchor="start">skills + docs SVG</text>
</svg>
