<svg xmlns="http://www.w3.org/2000/svg" width="1800" height="930" viewBox="0 0 1800 930">
<defs>
<filter id="shadow" x="-20%" y="-20%" width="140%" height="150%"><feDropShadow dx="0" dy="10" stdDeviation="10" flood-color="#0B1826" flood-opacity="0.12"/></filter>
<marker id="arrow" markerWidth="12" markerHeight="12" refX="10" refY="6" orient="auto"><path d="M2,2 L10,6 L2,10 Z" fill="#8D9AA8"/></marker>
</defs>
<style>text{font-family:Microsoft JhengHei, Segoe UI, Arial, sans-serif;dominant-baseline:auto} .mono{font-family:Consolas,Menlo,monospace}</style>
<rect x="0" y="0" width="1800" height="930" rx="0" fill="#F3F6F9" stroke="none" stroke-width="2" />
<rect x="0" y="0" width="1800" height="170" rx="0" fill="#102033" stroke="none" stroke-width="2" />
<text x="70" y="72" font-size="38" font-weight="820" fill="#FFFFFF" text-anchor="start">Attention Demo</text>
<text x="70" y="112" font-size="18" font-weight="450" fill="#D6E1EC" text-anchor="start">Transformer 原文 -&gt; CCFA idea、寫作、審稿、rebuttal dry run。</text>
<rect x="90" y="245" width="350" height="170" rx="30" fill="#FFFFFF" stroke="none" stroke-width="2" filter="url(#shadow)"/>
<text x="124" y="315" font-size="44" font-weight="850" fill="#C05C35" text-anchor="start">28.4</text>
<text x="124" y="354" font-size="22" font-weight="820" fill="#17212B" text-anchor="start">EN-DE BLEU</text>
<text x="124" y="390" font-size="16" font-weight="500" fill="#536171" text-anchor="start">Transformer big</text>
<rect x="510" y="245" width="350" height="170" rx="30" fill="#FFFFFF" stroke="none" stroke-width="2" filter="url(#shadow)"/>
<text x="544" y="315" font-size="44" font-weight="850" fill="#6F5AA6" text-anchor="start">41.0</text>
<text x="544" y="354" font-size="22" font-weight="820" fill="#17212B" text-anchor="start">EN-FR BLEU</text>
<text x="544" y="390" font-size="16" font-weight="500" fill="#536171" text-anchor="start">單模型</text>
<rect x="930" y="245" width="350" height="170" rx="30" fill="#FFFFFF" stroke="none" stroke-width="2" filter="url(#shadow)"/>
<text x="964" y="315" font-size="44" font-weight="850" fill="#1E7894" text-anchor="start">8x P100</text>
<text x="964" y="354" font-size="22" font-weight="820" fill="#17212B" text-anchor="start">訓練硬體</text>
<text x="964" y="390" font-size="16" font-weight="500" fill="#536171" text-anchor="start">論文設定</text>
<rect x="1350" y="245" width="350" height="170" rx="30" fill="#FFFFFF" stroke="none" stroke-width="2" filter="url(#shadow)"/>
<text x="1384" y="315" font-size="44" font-weight="850" fill="#477AA6" text-anchor="start">3.5 天</text>
<text x="1384" y="354" font-size="22" font-weight="820" fill="#17212B" text-anchor="start">big EN-DE</text>
<text x="1384" y="390" font-size="16" font-weight="500" fill="#536171" text-anchor="start">300K steps</text>
<circle cx="120" cy="560" r="42" fill="#1E7894" filter="url(#shadow)"/>
<text x="120" y="570" font-size="28" font-weight="850" fill="#FFFFFF" text-anchor="middle">1</text>
<text x="186" y="552" font-size="22" font-weight="820" fill="#17212B" text-anchor="start">讀取</text>
<text x="186" y="586" font-size="16" font-weight="500" fill="#536171" text-anchor="start">原文</text>
<line x1="228" y1="560" x2="392" y2="560" stroke="#CAD4DE" stroke-width="3" stroke-linecap="round" marker-end="url(#arrow)"/>
<circle cx="450" cy="560" r="42" fill="#C05C35" filter="url(#shadow)"/>
<text x="450" y="570" font-size="28" font-weight="850" fill="#FFFFFF" text-anchor="middle">2</text>
<text x="516" y="552" font-size="22" font-weight="820" fill="#17212B" text-anchor="start">idea</text>
<text x="516" y="586" font-size="16" font-weight="500" fill="#536171" text-anchor="start">attention-only seq2seq</text>
<line x1="558" y1="560" x2="722" y2="560" stroke="#CAD4DE" stroke-width="3" stroke-linecap="round" marker-end="url(#arrow)"/>
<circle cx="780" cy="560" r="42" fill="#333B46" filter="url(#shadow)"/>
<text x="780" y="570" font-size="28" font-weight="850" fill="#FFFFFF" text-anchor="middle">3</text>
<text x="846" y="552" font-size="22" font-weight="820" fill="#17212B" text-anchor="start">寫作</text>
<text x="846" y="586" font-size="16" font-weight="500" fill="#536171" text-anchor="start">NeurIPS story</text>
<line x1="888" y1="560" x2="1052" y2="560" stroke="#CAD4DE" stroke-width="3" stroke-linecap="round" marker-end="url(#arrow)"/>
<circle cx="1110" cy="560" r="42" fill="#A78328" filter="url(#shadow)"/>
<text x="1110" y="570" font-size="28" font-weight="850" fill="#FFFFFF" text-anchor="middle">4</text>
<text x="1176" y="552" font-size="22" font-weight="820" fill="#17212B" text-anchor="start">審稿</text>
<text x="1176" y="586" font-size="16" font-weight="500" fill="#536171" text-anchor="start">評分 + 稽核</text>
<line x1="1218" y1="560" x2="1382" y2="560" stroke="#CAD4DE" stroke-width="3" stroke-linecap="round" marker-end="url(#arrow)"/>
<circle cx="1440" cy="560" r="42" fill="#477AA6" filter="url(#shadow)"/>
<text x="1440" y="570" font-size="28" font-weight="850" fill="#FFFFFF" text-anchor="middle">5</text>
<text x="1506" y="552" font-size="22" font-weight="820" fill="#17212B" text-anchor="start">rebuttal</text>
<text x="1506" y="586" font-size="16" font-weight="500" fill="#536171" text-anchor="start">回覆計畫</text>
<rect x="410" y="735" width="980" height="86" rx="22" fill="#102033" stroke="none" stroke-width="2" filter="url(#shadow)"/>
<text x="900" y="790" font-size="28" font-weight="820" fill="#FFFFFF" text-anchor="middle">demo/attention-is-all-you-need/</text>
</svg>
