<svg xmlns="http://www.w3.org/2000/svg" width="1800" height="1080" viewBox="0 0 1800 1080">
<defs>
<filter id="shadow" x="-20%" y="-20%" width="140%" height="150%"><feDropShadow dx="0" dy="10" stdDeviation="10" flood-color="#0B1826" flood-opacity="0.12"/></filter>
<marker id="arrow" markerWidth="12" markerHeight="12" refX="10" refY="6" orient="auto"><path d="M2,2 L10,6 L2,10 Z" fill="#8D9AA8"/></marker>
</defs>
<style>text{font-family:Inter, Segoe UI, Arial, sans-serif;dominant-baseline:auto} .mono{font-family:Consolas,Menlo,monospace}</style>
<rect x="0" y="0" width="1800" height="1080" rx="0" fill="#F3F6F9" stroke="none" stroke-width="2" />
<rect x="0" y="0" width="1800" height="170" rx="0" fill="#102033" stroke="none" stroke-width="2" />
<text x="70" y="72" font-size="38" font-weight="820" fill="#FFFFFF" text-anchor="start">Runtime Skill Catalog</text>
<text x="70" y="112" font-size="18" font-weight="450" fill="#D6E1EC" text-anchor="start">The installable surface after helper-skill consolidation.</text>
<rect x="80" y="240" width="320" height="44" rx="22" fill="#1E7894" stroke="none" stroke-width="2" />
<text x="104" y="269" font-size="17" font-weight="820" fill="#FFFFFF" text-anchor="start">Project</text>
<rect x="80" y="310" width="370" height="64" rx="14" fill="#FFFFFF" stroke="#1E7894" stroke-width="2" filter="url(#shadow)"/>
<circle cx="104" cy="342" r="7" fill="#1E7894"/>
<text x="124" y="337" font-size="15" font-weight="780" fill="#17212B" text-anchor="start">ccf-project-scaffolder</text>
<text x="124" y="358" font-size="13" font-weight="500" fill="#536171" text-anchor="start">workspace + ccfa.yaml</text>
<rect x="80" y="396" width="370" height="64" rx="14" fill="#FFFFFF" stroke="#1E7894" stroke-width="2" filter="url(#shadow)"/>
<circle cx="104" cy="428" r="7" fill="#1E7894"/>
<text x="124" y="423" font-size="15" font-weight="780" fill="#17212B" text-anchor="start">ccf-pipeline-orchestrator</text>
<text x="124" y="444" font-size="13" font-weight="500" fill="#536171" text-anchor="start">plan + gates</text>
<rect x="80" y="482" width="370" height="64" rx="14" fill="#FFFFFF" stroke="#5A6672" stroke-width="2" filter="url(#shadow)"/>
<circle cx="104" cy="514" r="7" fill="#5A6672"/>
<text x="124" y="509" font-size="15" font-weight="780" fill="#17212B" text-anchor="start">ccf-common</text>
<text x="124" y="530" font-size="13" font-weight="500" fill="#536171" text-anchor="start">shared policy</text>
<rect x="520" y="240" width="320" height="44" rx="22" fill="#C05C35" stroke="none" stroke-width="2" />
<text x="544" y="269" font-size="17" font-weight="820" fill="#FFFFFF" text-anchor="start">Research</text>
<rect x="520" y="310" width="370" height="64" rx="14" fill="#FFFFFF" stroke="#C05C35" stroke-width="2" filter="url(#shadow)"/>
<circle cx="544" cy="342" r="7" fill="#C05C35"/>
<text x="564" y="337" font-size="15" font-weight="780" fill="#17212B" text-anchor="start">ccf-idea-optimizer</text>
<text x="564" y="358" font-size="13" font-weight="500" fill="#536171" text-anchor="start">shape idea</text>
<rect x="520" y="396" width="370" height="64" rx="14" fill="#FFFFFF" stroke="#C05C35" stroke-width="2" filter="url(#shadow)"/>
<circle cx="544" cy="428" r="7" fill="#C05C35"/>
<text x="564" y="423" font-size="15" font-weight="780" fill="#17212B" text-anchor="start">ccf-idea-reviewer</text>
<text x="564" y="444" font-size="13" font-weight="500" fill="#536171" text-anchor="start">score idea</text>
<rect x="520" y="482" width="370" height="64" rx="14" fill="#FFFFFF" stroke="#6F5AA6" stroke-width="2" filter="url(#shadow)"/>
<circle cx="544" cy="514" r="7" fill="#6F5AA6"/>
<text x="564" y="509" font-size="15" font-weight="780" fill="#17212B" text-anchor="start">ccf-literature-searcher</text>
<text x="564" y="530" font-size="13" font-weight="500" fill="#536171" text-anchor="start">find evidence</text>
<rect x="960" y="240" width="320" height="44" rx="22" fill="#6F5AA6" stroke="none" stroke-width="2" />
<text x="984" y="269" font-size="17" font-weight="820" fill="#FFFFFF" text-anchor="start">Paper</text>
<rect x="960" y="310" width="370" height="64" rx="14" fill="#FFFFFF" stroke="#6F5AA6" stroke-width="2" filter="url(#shadow)"/>
<circle cx="984" cy="342" r="7" fill="#6F5AA6"/>
<text x="1004" y="337" font-size="15" font-weight="780" fill="#17212B" text-anchor="start">ccf-experiment-designer</text>
<text x="1004" y="358" font-size="13" font-weight="500" fill="#536171" text-anchor="start">experiments + result tables</text>
<rect x="960" y="396" width="370" height="64" rx="14" fill="#FFFFFF" stroke="#333B46" stroke-width="2" filter="url(#shadow)"/>
<circle cx="984" cy="428" r="7" fill="#333B46"/>
<text x="1004" y="423" font-size="15" font-weight="780" fill="#17212B" text-anchor="start">ccf-paper-writer</text>
<text x="1004" y="444" font-size="13" font-weight="500" fill="#536171" text-anchor="start">write + compress + present</text>
<rect x="960" y="482" width="370" height="64" rx="14" fill="#FFFFFF" stroke="#A78328" stroke-width="2" filter="url(#shadow)"/>
<circle cx="984" cy="514" r="7" fill="#A78328"/>
<text x="1004" y="509" font-size="15" font-weight="780" fill="#17212B" text-anchor="start">ccf-paper-reviewer</text>
<text x="1004" y="530" font-size="13" font-weight="500" fill="#536171" text-anchor="start">science + writing review</text>
<rect x="1400" y="240" width="320" height="44" rx="22" fill="#854B82" stroke="none" stroke-width="2" />
<text x="1424" y="269" font-size="17" font-weight="820" fill="#FFFFFF" text-anchor="start">Deliver</text>
<rect x="1400" y="310" width="370" height="64" rx="14" fill="#FFFFFF" stroke="#854B82" stroke-width="2" filter="url(#shadow)"/>
<circle cx="1424" cy="342" r="7" fill="#854B82"/>
<text x="1444" y="337" font-size="15" font-weight="780" fill="#17212B" text-anchor="start">ccf-integrity-auditor</text>
<text x="1444" y="358" font-size="13" font-weight="500" fill="#536171" text-anchor="start">claims + citations</text>
<rect x="1400" y="396" width="370" height="64" rx="14" fill="#FFFFFF" stroke="#BA4C5E" stroke-width="2" filter="url(#shadow)"/>
<circle cx="1424" cy="428" r="7" fill="#BA4C5E"/>
<text x="1444" y="423" font-size="15" font-weight="780" fill="#17212B" text-anchor="start">ccf-submission-checker</text>
<text x="1444" y="444" font-size="13" font-weight="500" fill="#536171" text-anchor="start">venue + package + artifact</text>
<rect x="1400" y="482" width="370" height="64" rx="14" fill="#FFFFFF" stroke="#477AA6" stroke-width="2" filter="url(#shadow)"/>
<circle cx="1424" cy="514" r="7" fill="#477AA6"/>
<text x="1444" y="509" font-size="15" font-weight="780" fill="#17212B" text-anchor="start">ccf-rebuttal-writer</text>
<text x="1444" y="530" font-size="13" font-weight="500" fill="#536171" text-anchor="start">responses + resubmission</text>
<rect x="1400" y="568" width="370" height="64" rx="14" fill="#FFFFFF" stroke="#5A6672" stroke-width="2" filter="url(#shadow)"/>
<circle cx="1424" cy="600" r="7" fill="#5A6672"/>
<text x="1444" y="595" font-size="15" font-weight="780" fill="#17212B" text-anchor="start">ccf-skill-forger</text>
<text x="1444" y="616" font-size="13" font-weight="500" fill="#536171" text-anchor="start">skills + docs SVG</text>
</svg>
