<svg xmlns="http://www.w3.org/2000/svg" width="1800" height="1040" viewBox="0 0 1800 1040">
<defs>
<linearGradient id="header" x1="0" y1="0" x2="1" y2="1"><stop offset="0" stop-color="#102033"/><stop offset="0.58" stop-color="#1F6F8B"/><stop offset="1" stop-color="#7A4E9B"/></linearGradient>
<filter id="shadow" x="-20%" y="-20%" width="140%" height="160%"><feDropShadow dx="0" dy="12" stdDeviation="12" flood-color="#0B1826" flood-opacity="0.13"/></filter>
<marker id="arrow" markerWidth="13" markerHeight="13" refX="11" refY="6.5" orient="auto"><path d="M2,2 L11,6.5 L2,11 Z" fill="#7B8794"/></marker>
</defs>
<style>text{font-family:'Droid Sans Fallback', 'Microsoft JhengHei', 'PingFang TC', 'Noto Sans CJK TC', 'AR PL UMing TW', 'Segoe UI', Arial, sans-serif;dominant-baseline:auto} .mono{font-family:Consolas,Menlo,monospace}</style>
<rect x="0" y="0" width="1800" height="1040" rx="0" fill="#F6F8FB" stroke="none" stroke-width="2" />
<rect x="0" y="0" width="1800" height="158" rx="0" fill="url(#header)" stroke="none" stroke-width="2" />
<text x="72" y="66" font-size="44" font-weight="850" fill="#FFFFFF" text-anchor="start">審稿、結論/證據稽核與行動邊界</text>
<text x="72" y="108" font-size="20" font-weight="500" fill="#D8E6F2" text-anchor="start">判斷、結論支撐、投稿檢查、改寫和回應分開處理。</text>
<text x="1728" y="132" font-size="16" font-weight="650" fill="#D8E6F2" text-anchor="end">v0.8 · 21 個 owner skills · 版本化研究閉環</text>
<rect x="120" y="225" width="1560" height="96" rx="24" fill="#FFFFFF" stroke="none" stroke-width="2" filter="url(#shadow)"/>
<rect x="150" y="251" width="230" height="38" rx="19" fill="#2D3742" stroke="none" stroke-width="2" />
<text x="265" y="276" font-size="15" font-weight="760" fill="#FFFFFF" text-anchor="middle">改寫正文</text>
<text x="440" y="268" font-size="22" font-weight="840" fill="#15202B" text-anchor="start">ccf-paper-writer</text>
<text x="440" y="297" font-size="16" font-weight="520" fill="#5A6775" text-anchor="start">修改措辭、結構、壓縮和展示材料</text>
<rect x="120" y="355" width="1560" height="96" rx="24" fill="#FFFFFF" stroke="none" stroke-width="2" filter="url(#shadow)"/>
<rect x="150" y="381" width="230" height="38" rx="19" fill="#6657A8" stroke="none" stroke-width="2" />
<text x="265" y="406" font-size="15" font-weight="760" fill="#FFFFFF" text-anchor="middle">圖表呈現</text>
<text x="440" y="398" font-size="22" font-weight="840" fill="#15202B" text-anchor="start">ccf-visual-composer</text>
<text x="440" y="427" font-size="16" font-weight="520" fill="#5A6775" text-anchor="start">Python 繪圖、圖表契約、配色、caption 和渲染 QA</text>
<rect x="120" y="485" width="1560" height="96" rx="24" fill="#FFFFFF" stroke="none" stroke-width="2" filter="url(#shadow)"/>
<rect x="150" y="511" width="230" height="38" rx="19" fill="#B58B2A" stroke="none" stroke-width="2" />
<text x="265" y="536" font-size="15" font-weight="760" fill="#FFFFFF" text-anchor="middle">判斷品質</text>
<text x="440" y="528" font-size="22" font-weight="840" fill="#15202B" text-anchor="start">ccf-paper-reviewer</text>
<text x="440" y="557" font-size="16" font-weight="520" fill="#5A6775" text-anchor="start">評估創新性、正確性、清晰度和審稿風險</text>
<rect x="120" y="615" width="1560" height="96" rx="24" fill="#FFFFFF" stroke="none" stroke-width="2" filter="url(#shadow)"/>
<rect x="150" y="641" width="230" height="38" rx="19" fill="#8A4F86" stroke="none" stroke-width="2" />
<text x="265" y="666" font-size="15" font-weight="760" fill="#FFFFFF" text-anchor="middle">稽核支撐</text>
<text x="440" y="658" font-size="22" font-weight="840" fill="#15202B" text-anchor="start">ccf-integrity-auditor</text>
<text x="440" y="687" font-size="16" font-weight="520" fill="#5A6775" text-anchor="start">核驗結論與數字、引用、圖表和 BibTeX 支撐的一致性</text>
<rect x="120" y="745" width="1560" height="96" rx="24" fill="#FFFFFF" stroke="none" stroke-width="2" filter="url(#shadow)"/>
<rect x="150" y="771" width="230" height="38" rx="19" fill="#BA4C5E" stroke="none" stroke-width="2" />
<text x="265" y="796" font-size="15" font-weight="760" fill="#FFFFFF" text-anchor="middle">檢查投稿包</text>
<text x="440" y="788" font-size="22" font-weight="840" fill="#15202B" text-anchor="start">ccf-submission-checker</text>
<text x="440" y="817" font-size="16" font-weight="520" fill="#5A6775" text-anchor="start">會議規則、PDF、匿名、metadata、artifact</text>
<rect x="120" y="875" width="1560" height="96" rx="24" fill="#FFFFFF" stroke="none" stroke-width="2" filter="url(#shadow)"/>
<rect x="150" y="901" width="230" height="38" rx="19" fill="#477AA6" stroke="none" stroke-width="2" />
<text x="265" y="926" font-size="15" font-weight="760" fill="#FFFFFF" text-anchor="middle">回應審稿</text>
<text x="440" y="918" font-size="22" font-weight="840" fill="#15202B" text-anchor="start">ccf-rebuttal-writer</text>
<text x="440" y="947" font-size="16" font-weight="520" fill="#5A6775" text-anchor="start">response letter、revision ledger、保守重投</text>
</svg>
