<svg xmlns="http://www.w3.org/2000/svg" width="1200" height="520" viewBox="0 0 1200 520">
<defs><marker id="arrow" markerWidth="10" markerHeight="10" refX="8" refY="3" orient="auto"><path d="M0,0 L0,6 L9,3 z" fill="#59616b"/></marker></defs>
<rect width="1200" height="520" fill="#f7f8fa"/>
<text x="60" y="62" font-family="Arial, sans-serif" font-size="34" font-weight="700" fill="#1f2933">CCFA v0.4 Architecture</text>
<rect x="60" y="120" width="300" height="82" rx="8" fill="#1F6F8B"/><text x="210" y="168" text-anchor="middle" font-family="Arial, sans-serif" font-size="22" fill="#ffffff">Governance</text>
<line x1="360" y1="161" x2="430" y2="161" stroke="#59616b" stroke-width="3" marker-end="url(#arrow)"/>
<rect x="430" y="120" width="300" height="82" rx="8" fill="#2D8A68"/><text x="580" y="168" text-anchor="middle" font-family="Arial, sans-serif" font-size="22" fill="#ffffff">Project State</text>
<line x1="730" y1="161" x2="800" y2="161" stroke="#59616b" stroke-width="3" marker-end="url(#arrow)"/>
<rect x="800" y="120" width="300" height="82" rx="8" fill="#B85C38"/><text x="950" y="168" text-anchor="middle" font-family="Arial, sans-serif" font-size="22" fill="#ffffff">Research Chain</text>
<rect x="60" y="270" width="300" height="82" rx="8" fill="#6B5B95"/><text x="210" y="318" text-anchor="middle" font-family="Arial, sans-serif" font-size="22" fill="#ffffff">Venue Guides</text>
<line x1="360" y1="311" x2="430" y2="311" stroke="#59616b" stroke-width="3" marker-end="url(#arrow)"/>
<rect x="430" y="270" width="300" height="82" rx="8" fill="#3B3F46"/><text x="580" y="318" text-anchor="middle" font-family="Arial, sans-serif" font-size="22" fill="#ffffff">Audits</text>
<line x1="730" y1="311" x2="800" y2="311" stroke="#59616b" stroke-width="3" marker-end="url(#arrow)"/>
<rect x="800" y="270" width="300" height="82" rx="8" fill="#B08D57"/><text x="950" y="318" text-anchor="middle" font-family="Arial, sans-serif" font-size="22" fill="#ffffff">Release</text>
</svg>
