<svg xmlns="http://www.w3.org/2000/svg" width="1800" height="1040" viewBox="0 0 1800 1040">
<defs>
<filter id="shadow" x="-20%" y="-20%" width="140%" height="150%"><feDropShadow dx="0" dy="10" stdDeviation="10" flood-color="#0B1826" flood-opacity="0.12"/></filter>
<marker id="arrow" markerWidth="12" markerHeight="12" refX="10" refY="6" orient="auto"><path d="M2,2 L10,6 L2,10 Z" fill="#8D9AA8"/></marker>
</defs>
<style>text{font-family:Microsoft YaHei, Segoe UI, Arial, sans-serif;dominant-baseline:auto} .mono{font-family:Consolas,Menlo,monospace}</style>
<rect x="0" y="0" width="1800" height="1040" rx="0" fill="#F3F6F9" stroke="none" stroke-width="2" />
<rect x="0" y="0" width="1800" height="170" rx="0" fill="#102033" stroke="none" stroke-width="2" />
<text x="70" y="72" font-size="38" font-weight="820" fill="#FFFFFF" text-anchor="start">CCFA Skills 架构</text>
<text x="70" y="112" font-size="18" font-weight="450" fill="#D6E1EC" text-anchor="start">13 个 runtime skills，每个阶段一个 owner，helper 能力并入 mode。</text>
<rect x="80" y="240" width="340" height="44" rx="22" fill="#1E7894" stroke="none" stroke-width="2" />
<text x="104" y="269" font-size="17" font-weight="820" fill="#FFFFFF" text-anchor="start">项目</text>
<rect x="80" y="306" width="390" height="64" rx="14" fill="#FFFFFF" stroke="#1E7894" stroke-width="2" filter="url(#shadow)"/>
<circle cx="104" cy="338" r="7" fill="#1E7894"/>
<text x="124" y="333" font-size="15" font-weight="780" fill="#17212B" text-anchor="start">ccf-project-scaffolder</text>
<text x="124" y="354" font-size="13" font-weight="500" fill="#536171" text-anchor="start">项目 + ccfa.yaml</text>
<rect x="80" y="390" width="390" height="64" rx="14" fill="#FFFFFF" stroke="#1E7894" stroke-width="2" filter="url(#shadow)"/>
<circle cx="104" cy="422" r="7" fill="#1E7894"/>
<text x="124" y="417" font-size="15" font-weight="780" fill="#17212B" text-anchor="start">ccf-pipeline-orchestrator</text>
<text x="124" y="438" font-size="13" font-weight="500" fill="#536171" text-anchor="start">流程 + gate</text>
<rect x="520" y="240" width="340" height="44" rx="22" fill="#C05C35" stroke="none" stroke-width="2" />
<text x="544" y="269" font-size="17" font-weight="820" fill="#FFFFFF" text-anchor="start">选题</text>
<rect x="520" y="306" width="390" height="64" rx="14" fill="#FFFFFF" stroke="#C05C35" stroke-width="2" filter="url(#shadow)"/>
<circle cx="544" cy="338" r="7" fill="#C05C35"/>
<text x="564" y="333" font-size="15" font-weight="780" fill="#17212B" text-anchor="start">ccf-idea-optimizer</text>
<text x="564" y="354" font-size="13" font-weight="500" fill="#536171" text-anchor="start">优化 idea</text>
<rect x="520" y="390" width="390" height="64" rx="14" fill="#FFFFFF" stroke="#C05C35" stroke-width="2" filter="url(#shadow)"/>
<circle cx="544" cy="422" r="7" fill="#C05C35"/>
<text x="564" y="417" font-size="15" font-weight="780" fill="#17212B" text-anchor="start">ccf-idea-reviewer</text>
<text x="564" y="438" font-size="13" font-weight="500" fill="#536171" text-anchor="start">评分取舍</text>
<rect x="960" y="240" width="340" height="44" rx="22" fill="#6F5AA6" stroke="none" stroke-width="2" />
<text x="984" y="269" font-size="17" font-weight="820" fill="#FFFFFF" text-anchor="start">证据</text>
<rect x="960" y="306" width="390" height="64" rx="14" fill="#FFFFFF" stroke="#6F5AA6" stroke-width="2" filter="url(#shadow)"/>
<circle cx="984" cy="338" r="7" fill="#6F5AA6"/>
<text x="1004" y="333" font-size="15" font-weight="780" fill="#17212B" text-anchor="start">ccf-literature-searcher</text>
<text x="1004" y="354" font-size="13" font-weight="500" fill="#536171" text-anchor="start">找文献证据</text>
<rect x="960" y="390" width="390" height="64" rx="14" fill="#FFFFFF" stroke="#6F5AA6" stroke-width="2" filter="url(#shadow)"/>
<circle cx="984" cy="422" r="7" fill="#6F5AA6"/>
<text x="1004" y="417" font-size="15" font-weight="780" fill="#17212B" text-anchor="start">ccf-experiment-designer</text>
<text x="1004" y="438" font-size="13" font-weight="500" fill="#536171" text-anchor="start">实验 + 结果图表</text>
<rect x="1400" y="240" width="340" height="44" rx="22" fill="#333B46" stroke="none" stroke-width="2" />
<text x="1424" y="269" font-size="17" font-weight="820" fill="#FFFFFF" text-anchor="start">写作</text>
<rect x="1400" y="306" width="390" height="64" rx="14" fill="#FFFFFF" stroke="#333B46" stroke-width="2" filter="url(#shadow)"/>
<circle cx="1424" cy="338" r="7" fill="#333B46"/>
<text x="1444" y="333" font-size="15" font-weight="780" fill="#17212B" text-anchor="start">ccf-paper-writer</text>
<text x="1444" y="354" font-size="13" font-weight="500" fill="#536171" text-anchor="start">写作 + 压缩 + 展示</text>
<rect x="300" y="610" width="340" height="44" rx="22" fill="#A78328" stroke="none" stroke-width="2" />
<text x="324" y="639" font-size="17" font-weight="820" fill="#FFFFFF" text-anchor="start">保障</text>
<rect x="300" y="676" width="390" height="64" rx="14" fill="#FFFFFF" stroke="#A78328" stroke-width="2" filter="url(#shadow)"/>
<circle cx="324" cy="708" r="7" fill="#A78328"/>
<text x="344" y="703" font-size="15" font-weight="780" fill="#17212B" text-anchor="start">ccf-paper-reviewer</text>
<text x="344" y="724" font-size="13" font-weight="500" fill="#536171" text-anchor="start">科学 + 写作评审</text>
<rect x="300" y="760" width="390" height="64" rx="14" fill="#FFFFFF" stroke="#854B82" stroke-width="2" filter="url(#shadow)"/>
<circle cx="324" cy="792" r="7" fill="#854B82"/>
<text x="344" y="787" font-size="15" font-weight="780" fill="#17212B" text-anchor="start">ccf-integrity-auditor</text>
<text x="344" y="808" font-size="13" font-weight="500" fill="#536171" text-anchor="start">claim + 引用</text>
<rect x="830" y="610" width="340" height="44" rx="22" fill="#BA4C5E" stroke="none" stroke-width="2" />
<text x="854" y="639" font-size="17" font-weight="820" fill="#FFFFFF" text-anchor="start">投稿</text>
<rect x="830" y="676" width="390" height="64" rx="14" fill="#FFFFFF" stroke="#BA4C5E" stroke-width="2" filter="url(#shadow)"/>
<circle cx="854" cy="708" r="7" fill="#BA4C5E"/>
<text x="874" y="703" font-size="15" font-weight="780" fill="#17212B" text-anchor="start">ccf-submission-checker</text>
<text x="874" y="724" font-size="13" font-weight="500" fill="#536171" text-anchor="start">会议 + 投稿包 + artifact</text>
<rect x="830" y="760" width="390" height="64" rx="14" fill="#FFFFFF" stroke="#477AA6" stroke-width="2" filter="url(#shadow)"/>
<circle cx="854" cy="792" r="7" fill="#477AA6"/>
<text x="874" y="787" font-size="15" font-weight="780" fill="#17212B" text-anchor="start">ccf-rebuttal-writer</text>
<text x="874" y="808" font-size="13" font-weight="500" fill="#536171" text-anchor="start">回复 + 重投</text>
<rect x="1360" y="610" width="340" height="44" rx="22" fill="#5A6672" stroke="none" stroke-width="2" />
<text x="1384" y="639" font-size="17" font-weight="820" fill="#FFFFFF" text-anchor="start">治理</text>
<rect x="1360" y="676" width="390" height="64" rx="14" fill="#FFFFFF" stroke="#5A6672" stroke-width="2" filter="url(#shadow)"/>
<circle cx="1384" cy="708" r="7" fill="#5A6672"/>
<text x="1404" y="703" font-size="15" font-weight="780" fill="#17212B" text-anchor="start">ccf-common</text>
<text x="1404" y="724" font-size="13" font-weight="500" fill="#536171" text-anchor="start">共享治理</text>
<rect x="1360" y="760" width="390" height="64" rx="14" fill="#FFFFFF" stroke="#5A6672" stroke-width="2" filter="url(#shadow)"/>
<circle cx="1384" cy="792" r="7" fill="#5A6672"/>
<text x="1404" y="787" font-size="15" font-weight="780" fill="#17212B" text-anchor="start">ccf-skill-forger</text>
<text x="1404" y="808" font-size="13" font-weight="500" fill="#536171" text-anchor="start">skills + 文档 SVG</text>
<rect x="650" y="455" width="500" height="125" rx="26" fill="#102033" stroke="none" stroke-width="2" filter="url(#shadow)"/>
<text x="900" y="505" font-size="34" font-weight="850" fill="#FFFFFF" text-anchor="middle">ccfa.yaml</text>
<text x="900" y="544" font-size="16" font-weight="500" fill="#CFE0EF" text-anchor="middle">state / artifacts / gates / handoffs</text>
</svg>
