<svg xmlns="http://www.w3.org/2000/svg" width="1800" height="850" viewBox="0 0 1800 850">
<defs>
<filter id="shadow" x="-20%" y="-20%" width="140%" height="150%"><feDropShadow dx="0" dy="10" stdDeviation="10" flood-color="#0B1826" flood-opacity="0.12"/></filter>
<marker id="arrow" markerWidth="12" markerHeight="12" refX="10" refY="6" orient="auto"><path d="M2,2 L10,6 L2,10 Z" fill="#8D9AA8"/></marker>
</defs>
<style>text{font-family:Inter, Segoe UI, Arial, sans-serif;dominant-baseline:auto} .mono{font-family:Consolas,Menlo,monospace}</style>
<rect x="0" y="0" width="1800" height="850" rx="0" fill="#F3F6F9" stroke="none" stroke-width="2" />
<rect x="0" y="0" width="1800" height="170" rx="0" fill="#102033" stroke="none" stroke-width="2" />
<text x="70" y="72" font-size="38" font-weight="820" fill="#FFFFFF" text-anchor="start">Review And Audit Boundaries</text>
<text x="70" y="112" font-size="18" font-weight="450" fill="#D6E1EC" text-anchor="start">Separate judgment, integrity, submission, and writing actions.</text>
<rect x="90" y="260" width="480" height="160" rx="26" fill="#FFFFFF" stroke="none" stroke-width="2" filter="url(#shadow)"/>
<rect x="90" y="260" width="480" height="44" rx="22" fill="#A78328" stroke="none" stroke-width="2" />
<text x="114" y="289" font-size="17" font-weight="820" fill="#FFFFFF" text-anchor="start">Judgment</text>
<text x="124" y="352" font-size="22" font-weight="820" fill="#17212B" text-anchor="start">ccf-paper-reviewer</text>
<text x="124" y="386" font-size="16" font-weight="550" fill="#536171" text-anchor="start">novelty · soundness · writing · score</text>
<rect x="650" y="260" width="480" height="160" rx="26" fill="#FFFFFF" stroke="none" stroke-width="2" filter="url(#shadow)"/>
<rect x="650" y="260" width="480" height="44" rx="22" fill="#854B82" stroke="none" stroke-width="2" />
<text x="674" y="289" font-size="17" font-weight="820" fill="#FFFFFF" text-anchor="start">Integrity</text>
<text x="684" y="352" font-size="22" font-weight="820" fill="#17212B" text-anchor="start">ccf-integrity-auditor</text>
<text x="684" y="386" font-size="16" font-weight="550" fill="#536171" text-anchor="start">claims · numbers · citations</text>
<rect x="1210" y="260" width="480" height="160" rx="26" fill="#FFFFFF" stroke="none" stroke-width="2" filter="url(#shadow)"/>
<rect x="1210" y="260" width="480" height="44" rx="22" fill="#333B46" stroke="none" stroke-width="2" />
<text x="1234" y="289" font-size="17" font-weight="820" fill="#FFFFFF" text-anchor="start">Action</text>
<text x="1244" y="352" font-size="22" font-weight="820" fill="#17212B" text-anchor="start">ccf-paper-writer</text>
<text x="1244" y="386" font-size="16" font-weight="550" fill="#536171" text-anchor="start">revise · compress · present</text>
<rect x="90" y="500" width="480" height="160" rx="26" fill="#FFFFFF" stroke="none" stroke-width="2" filter="url(#shadow)"/>
<rect x="90" y="500" width="480" height="44" rx="22" fill="#BA4C5E" stroke="none" stroke-width="2" />
<text x="114" y="529" font-size="17" font-weight="820" fill="#FFFFFF" text-anchor="start">Package</text>
<text x="124" y="592" font-size="22" font-weight="820" fill="#17212B" text-anchor="start">ccf-submission-checker</text>
<text x="124" y="626" font-size="16" font-weight="550" fill="#536171" text-anchor="start">venue · PDF · artifact</text>
<rect x="650" y="500" width="480" height="160" rx="26" fill="#FFFFFF" stroke="none" stroke-width="2" filter="url(#shadow)"/>
<rect x="650" y="500" width="480" height="44" rx="22" fill="#477AA6" stroke="none" stroke-width="2" />
<text x="674" y="529" font-size="17" font-weight="820" fill="#FFFFFF" text-anchor="start">Response</text>
<text x="684" y="592" font-size="22" font-weight="820" fill="#17212B" text-anchor="start">ccf-rebuttal-writer</text>
<text x="684" y="626" font-size="16" font-weight="550" fill="#536171" text-anchor="start">rebuttal · ledger · resubmit</text>
</svg>
