<svg xmlns="http://www.w3.org/2000/svg" width="1800" height="1740" viewBox="0 0 1800 1740">
<defs>
<linearGradient id="header" x1="0" y1="0" x2="1" y2="1"><stop offset="0" stop-color="#102033"/><stop offset="0.58" stop-color="#1F6F8B"/><stop offset="1" stop-color="#7A4E9B"/></linearGradient>
<filter id="shadow" x="-20%" y="-20%" width="140%" height="160%"><feDropShadow dx="0" dy="12" stdDeviation="12" flood-color="#0B1826" flood-opacity="0.13"/></filter>
<marker id="arrow" markerWidth="13" markerHeight="13" refX="11" refY="6.5" orient="auto"><path d="M2,2 L11,6.5 L2,11 Z" fill="#7B8794"/></marker>
</defs>
<style>text{font-family:'Droid Sans Fallback', 'Microsoft JhengHei', 'PingFang TC', 'Noto Sans CJK TC', 'AR PL UMing TW', 'Segoe UI', Arial, sans-serif;dominant-baseline:auto} .mono{font-family:Consolas,Menlo,monospace}</style>
<rect x="0" y="0" width="1800" height="1740" rx="0" fill="#F6F8FB" stroke="none" stroke-width="2" />
<rect x="0" y="0" width="1800" height="158" rx="0" fill="url(#header)" stroke="none" stroke-width="2" />
<text x="72" y="66" font-size="44" font-weight="850" fill="#FFFFFF" text-anchor="start">CCFA 技能家族邏輯</text>
<text x="72" y="108" font-size="20" font-weight="500" fill="#D8E6F2" text-anchor="start">論文流程、版本化設計驗證、共享狀態和治理層。</text>
<text x="1728" y="132" font-size="16" font-weight="650" fill="#D8E6F2" text-anchor="end">v0.8 · 21 個 owner skills · 版本化研究閉環</text>
<rect x="70" y="228" width="500" height="246" rx="24" fill="#FFFFFF" stroke="none" stroke-width="2" filter="url(#shadow)"/>
<rect x="70" y="228" width="500" height="52" rx="24" fill="#1F7A8C" stroke="none" stroke-width="2" />
<text x="92" y="262" font-size="18" font-weight="820" fill="#FFFFFF" text-anchor="start">搭建</text>
<rect x="88" y="298" width="464" height="66" rx="18" fill="#FFFFFF" stroke="none" stroke-width="2" filter="url(#shadow)"/>
<rect x="88" y="298" width="8" height="66" rx="18" fill="#1F7A8C" stroke="none" stroke-width="2" />
<text x="112" y="332" font-size="15" font-weight="820" fill="#15202B" text-anchor="start">ccf-project-scaffolder</text>
<text x="112" y="357" font-size="13" font-weight="520" fill="#5A6775" text-anchor="start">目錄、模板、ccfa.yaml</text>
<rect x="88" y="380" width="464" height="66" rx="18" fill="#FFFFFF" stroke="none" stroke-width="2" filter="url(#shadow)"/>
<rect x="88" y="380" width="8" height="66" rx="18" fill="#1F7A8C" stroke="none" stroke-width="2" />
<text x="112" y="414" font-size="15" font-weight="820" fill="#15202B" text-anchor="start">ccf-pipeline-orchestrator</text>
<text x="112" y="439" font-size="13" font-weight="520" fill="#5A6775" text-anchor="start">階段計畫、gate、handoff</text>
<rect x="650" y="228" width="500" height="246" rx="24" fill="#FFFFFF" stroke="none" stroke-width="2" filter="url(#shadow)"/>
<rect x="650" y="228" width="500" height="52" rx="24" fill="#D2673D" stroke="none" stroke-width="2" />
<text x="672" y="262" font-size="18" font-weight="820" fill="#FFFFFF" text-anchor="start">選題成型</text>
<rect x="668" y="298" width="464" height="66" rx="18" fill="#FFFFFF" stroke="none" stroke-width="2" filter="url(#shadow)"/>
<rect x="668" y="298" width="8" height="66" rx="18" fill="#D2673D" stroke="none" stroke-width="2" />
<text x="692" y="332" font-size="15" font-weight="820" fill="#15202B" text-anchor="start">ccf-idea-optimizer</text>
<text x="692" y="357" font-size="13" font-weight="520" fill="#5A6775" text-anchor="start">探索、救援、塑形</text>
<rect x="668" y="380" width="464" height="66" rx="18" fill="#FFFFFF" stroke="none" stroke-width="2" filter="url(#shadow)"/>
<rect x="668" y="380" width="8" height="66" rx="18" fill="#D2673D" stroke="none" stroke-width="2" />
<text x="692" y="414" font-size="15" font-weight="820" fill="#15202B" text-anchor="start">ccf-idea-reviewer</text>
<text x="692" y="439" font-size="13" font-weight="520" fill="#5A6775" text-anchor="start">評分、排序、階段風險</text>
<rect x="1230" y="228" width="500" height="328" rx="24" fill="#FFFFFF" stroke="none" stroke-width="2" filter="url(#shadow)"/>
<rect x="1230" y="228" width="500" height="52" rx="24" fill="#6657A8" stroke="none" stroke-width="2" />
<text x="1252" y="262" font-size="18" font-weight="820" fill="#FFFFFF" text-anchor="start">證據</text>
<rect x="1248" y="298" width="464" height="66" rx="18" fill="#FFFFFF" stroke="none" stroke-width="2" filter="url(#shadow)"/>
<rect x="1248" y="298" width="8" height="66" rx="18" fill="#6657A8" stroke="none" stroke-width="2" />
<text x="1272" y="332" font-size="15" font-weight="820" fill="#15202B" text-anchor="start">ccf-literature-monitor</text>
<text x="1272" y="357" font-size="13" font-weight="520" fill="#5A6775" text-anchor="start">新論文、競品、overlap</text>
<rect x="1248" y="380" width="464" height="66" rx="18" fill="#FFFFFF" stroke="none" stroke-width="2" filter="url(#shadow)"/>
<rect x="1248" y="380" width="8" height="66" rx="18" fill="#6657A8" stroke="none" stroke-width="2" />
<text x="1272" y="414" font-size="15" font-weight="820" fill="#15202B" text-anchor="start">ccf-literature-searcher</text>
<text x="1272" y="439" font-size="13" font-weight="520" fill="#5A6775" text-anchor="start">prior art、open gap、benchmark</text>
<rect x="1248" y="462" width="464" height="66" rx="18" fill="#FFFFFF" stroke="none" stroke-width="2" filter="url(#shadow)"/>
<rect x="1248" y="462" width="8" height="66" rx="18" fill="#6657A8" stroke="none" stroke-width="2" />
<text x="1272" y="496" font-size="15" font-weight="820" fill="#15202B" text-anchor="start">ccf-experiment-designer</text>
<text x="1272" y="521" font-size="13" font-weight="520" fill="#5A6775" text-anchor="start">baseline、消融、結果規格</text>
<rect x="70" y="560" width="500" height="328" rx="24" fill="#FFFFFF" stroke="none" stroke-width="2" filter="url(#shadow)"/>
<rect x="70" y="560" width="500" height="52" rx="24" fill="#2D3742" stroke="none" stroke-width="2" />
<text x="92" y="594" font-size="18" font-weight="820" fill="#FFFFFF" text-anchor="start">正文</text>
<rect x="88" y="630" width="464" height="66" rx="18" fill="#FFFFFF" stroke="none" stroke-width="2" filter="url(#shadow)"/>
<rect x="88" y="630" width="8" height="66" rx="18" fill="#6657A8" stroke="none" stroke-width="2" />
<text x="112" y="664" font-size="15" font-weight="820" fill="#15202B" text-anchor="start">ccf-visual-composer</text>
<text x="112" y="689" font-size="13" font-weight="520" fill="#5A6775" text-anchor="start">Python 繪圖、圖表、排版 QA</text>
<rect x="88" y="712" width="464" height="66" rx="18" fill="#FFFFFF" stroke="none" stroke-width="2" filter="url(#shadow)"/>
<rect x="88" y="712" width="8" height="66" rx="18" fill="#2D3742" stroke="none" stroke-width="2" />
<text x="112" y="746" font-size="15" font-weight="820" fill="#15202B" text-anchor="start">ccf-paper-to-exemplar</text>
<text x="112" y="771" font-size="13" font-weight="520" fill="#5A6775" text-anchor="start">PDF 轉寫作範例卡</text>
<rect x="88" y="794" width="464" height="66" rx="18" fill="#FFFFFF" stroke="none" stroke-width="2" filter="url(#shadow)"/>
<rect x="88" y="794" width="8" height="66" rx="18" fill="#2D3742" stroke="none" stroke-width="2" />
<text x="112" y="828" font-size="15" font-weight="820" fill="#15202B" text-anchor="start">ccf-paper-writer</text>
<text x="112" y="853" font-size="13" font-weight="520" fill="#5A6775" text-anchor="start">起草、篇幅、壓縮、展示</text>
<rect x="650" y="560" width="500" height="246" rx="24" fill="#FFFFFF" stroke="none" stroke-width="2" filter="url(#shadow)"/>
<rect x="650" y="560" width="500" height="52" rx="24" fill="#B58B2A" stroke="none" stroke-width="2" />
<text x="672" y="594" font-size="18" font-weight="820" fill="#FFFFFF" text-anchor="start">品質保障</text>
<rect x="668" y="630" width="464" height="66" rx="18" fill="#FFFFFF" stroke="none" stroke-width="2" filter="url(#shadow)"/>
<rect x="668" y="630" width="8" height="66" rx="18" fill="#B58B2A" stroke="none" stroke-width="2" />
<text x="692" y="664" font-size="15" font-weight="820" fill="#15202B" text-anchor="start">ccf-paper-reviewer</text>
<text x="692" y="689" font-size="13" font-weight="520" fill="#5A6775" text-anchor="start">科學審稿和寫作審稿</text>
<rect x="668" y="712" width="464" height="66" rx="18" fill="#FFFFFF" stroke="none" stroke-width="2" filter="url(#shadow)"/>
<rect x="668" y="712" width="8" height="66" rx="18" fill="#8A4F86" stroke="none" stroke-width="2" />
<text x="692" y="746" font-size="15" font-weight="820" fill="#15202B" text-anchor="start">ccf-integrity-auditor</text>
<text x="692" y="771" font-size="13" font-weight="520" fill="#5A6775" text-anchor="start">結論、數字、引用</text>
<rect x="1230" y="560" width="500" height="246" rx="24" fill="#FFFFFF" stroke="none" stroke-width="2" filter="url(#shadow)"/>
<rect x="1230" y="560" width="500" height="52" rx="24" fill="#BA4C5E" stroke="none" stroke-width="2" />
<text x="1252" y="594" font-size="18" font-weight="820" fill="#FFFFFF" text-anchor="start">投稿 / 回應</text>
<rect x="1248" y="630" width="464" height="66" rx="18" fill="#FFFFFF" stroke="none" stroke-width="2" filter="url(#shadow)"/>
<rect x="1248" y="630" width="8" height="66" rx="18" fill="#BA4C5E" stroke="none" stroke-width="2" />
<text x="1272" y="664" font-size="15" font-weight="820" fill="#15202B" text-anchor="start">ccf-submission-checker</text>
<text x="1272" y="689" font-size="13" font-weight="520" fill="#5A6775" text-anchor="start">會議、PDF、匿名、artifact</text>
<rect x="1248" y="712" width="464" height="66" rx="18" fill="#FFFFFF" stroke="none" stroke-width="2" filter="url(#shadow)"/>
<rect x="1248" y="712" width="8" height="66" rx="18" fill="#477AA6" stroke="none" stroke-width="2" />
<text x="1272" y="746" font-size="15" font-weight="820" fill="#15202B" text-anchor="start">ccf-rebuttal-writer</text>
<text x="1272" y="771" font-size="13" font-weight="520" fill="#5A6775" text-anchor="start">回應、ledger、重投</text>
<line x1="570" y1="370" x2="650" y2="370" stroke="#94A3B8" stroke-width="3" stroke-linecap="round" marker-end="url(#arrow)"/>
<line x1="1150" y1="370" x2="1230" y2="370" stroke="#94A3B8" stroke-width="3" stroke-linecap="round" marker-end="url(#arrow)"/>
<path d="M1480 492 C1480 530 320 530 320 560" fill="none" stroke="#94A3B8" stroke-width="3" stroke-linecap="round" stroke-linejoin="round" marker-end="url(#arrow)"/>
<line x1="570" y1="680" x2="650" y2="680" stroke="#94A3B8" stroke-width="3" stroke-linecap="round" marker-end="url(#arrow)"/>
<line x1="1150" y1="680" x2="1230" y2="680" stroke="#94A3B8" stroke-width="3" stroke-linecap="round" marker-end="url(#arrow)"/>
<path d="M1480 828 C1420 910 390 910 320 828" fill="none" stroke="#477AA6" stroke-width="4" stroke-linecap="round" stroke-linejoin="round" marker-end="url(#arrow)"/>
<text x="900" y="890" font-size="20" font-weight="820" fill="#477AA6" text-anchor="middle">論文修改回路</text>
<rect x="70" y="930" width="1660" height="270" rx="28" fill="#FFFFFF" stroke="none" stroke-width="2" filter="url(#shadow)"/>
<rect x="70" y="930" width="1660" height="54" rx="28" fill="#477AA6" stroke="none" stroke-width="2" />
<text x="96" y="965" font-size="21" font-weight="840" fill="#FFFFFF" text-anchor="start">版本化設計驗證閉環</text>
<rect x="94" y="1010" width="286" height="88" rx="18" fill="#FFFFFF" stroke="none" stroke-width="2" filter="url(#shadow)"/>
<rect x="94" y="1010" width="8" height="88" rx="18" fill="#D2673D" stroke="none" stroke-width="2" />
<text x="118" y="1044" font-size="15" font-weight="820" fill="#15202B" text-anchor="start">ccf-env-design</text>
<text x="118" y="1069" font-size="13" font-weight="520" fill="#5A6775" text-anchor="start">論文場景、正式問題、場景 MVP</text>
<line x1="386" y1="1054" x2="414" y2="1054" stroke="#94A3B8" stroke-width="2" stroke-linecap="round" marker-end="url(#arrow)"/>
<rect x="420" y="1010" width="286" height="88" rx="18" fill="#FFFFFF" stroke="none" stroke-width="2" filter="url(#shadow)"/>
<rect x="420" y="1010" width="8" height="88" rx="18" fill="#8A4F86" stroke="none" stroke-width="2" />
<text x="444" y="1044" font-size="15" font-weight="820" fill="#15202B" text-anchor="start">ccf-env-code-auditor</text>
<text x="444" y="1069" font-size="13" font-weight="520" fill="#5A6775" text-anchor="start">環境契約與獨立執行</text>
<line x1="712" y1="1054" x2="740" y2="1054" stroke="#94A3B8" stroke-width="2" stroke-linecap="round" marker-end="url(#arrow)"/>
<rect x="746" y="1010" width="286" height="88" rx="18" fill="#FFFFFF" stroke="none" stroke-width="2" filter="url(#shadow)"/>
<rect x="746" y="1010" width="8" height="88" rx="18" fill="#6657A8" stroke="none" stroke-width="2" />
<text x="770" y="1044" font-size="15" font-weight="820" fill="#15202B" text-anchor="start">ccf-algorithm-designer</text>
<text x="770" y="1069" font-size="13" font-weight="520" fill="#5A6775" text-anchor="start">正式機制與演算法 MVP</text>
<line x1="1038" y1="1054" x2="1066" y2="1054" stroke="#94A3B8" stroke-width="2" stroke-linecap="round" marker-end="url(#arrow)"/>
<rect x="1072" y="1010" width="286" height="88" rx="18" fill="#FFFFFF" stroke="none" stroke-width="2" filter="url(#shadow)"/>
<rect x="1072" y="1010" width="8" height="88" rx="18" fill="#8A4F86" stroke="none" stroke-width="2" />
<text x="1096" y="1044" font-size="15" font-weight="820" fill="#15202B" text-anchor="start">ccf-algorithm-code-auditor</text>
<text x="1096" y="1069" font-size="13" font-weight="520" fill="#5A6775" text-anchor="start">演算法契約與獨立執行</text>
<line x1="1364" y1="1054" x2="1392" y2="1054" stroke="#94A3B8" stroke-width="2" stroke-linecap="round" marker-end="url(#arrow)"/>
<rect x="1398" y="1010" width="286" height="88" rx="18" fill="#FFFFFF" stroke="none" stroke-width="2" filter="url(#shadow)"/>
<rect x="1398" y="1010" width="8" height="88" rx="18" fill="#477AA6" stroke="none" stroke-width="2" />
<text x="1422" y="1044" font-size="15" font-weight="820" fill="#15202B" text-anchor="start">ccf-experiment-debugger</text>
<text x="1422" y="1069" font-size="13" font-weight="520" fill="#5A6775" text-anchor="start">單一 owner 修復與閉環複審</text>
<path d="M1650 1108 C1650 1168 150 1168 150 1108" fill="none" stroke="#477AA6" stroke-width="3" stroke-linecap="round" stroke-linejoin="round" marker-end="url(#arrow)"/>
<text x="900" y="1145" font-size="16" font-weight="760" fill="#477AA6" text-anchor="middle">語義變更 = 新問題版本 + 下游重跑</text>
<text x="900" y="1180" font-size="15" font-weight="650" fill="#5A6775" text-anchor="middle">在檢查點提交上複用 $code-review；CCFA 不複製其規則</text>
<rect x="350" y="1240" width="1100" height="118" rx="30" fill="#102033" stroke="none" stroke-width="2" filter="url(#shadow)"/>
<text x="900" y="1290" font-size="36" font-weight="850" fill="#FFFFFF" text-anchor="middle">ccfa.yaml</text>
<text x="900" y="1325" font-size="18" font-weight="500" fill="#D8E6F2" text-anchor="middle">共享專案狀態</text>
<rect x="344" y="1380" width="146" height="38" rx="19" fill="#1F6F8B" stroke="none" stroke-width="2" />
<text x="417" y="1405" font-size="15" font-weight="760" fill="#FFFFFF" text-anchor="middle">問題版本</text>
<rect x="504" y="1380" width="146" height="38" rx="19" fill="#1F6F8B" stroke="none" stroke-width="2" />
<text x="577" y="1405" font-size="15" font-weight="760" fill="#FFFFFF" text-anchor="middle">契約</text>
<rect x="664" y="1380" width="146" height="38" rx="19" fill="#1F6F8B" stroke="none" stroke-width="2" />
<text x="737" y="1405" font-size="15" font-weight="760" fill="#FFFFFF" text-anchor="middle">證據</text>
<rect x="824" y="1380" width="146" height="38" rx="19" fill="#1F6F8B" stroke="none" stroke-width="2" />
<text x="897" y="1405" font-size="15" font-weight="760" fill="#FFFFFF" text-anchor="middle">paper_conclusions</text>
<rect x="984" y="1380" width="146" height="38" rx="19" fill="#1F6F8B" stroke="none" stroke-width="2" />
<text x="1057" y="1405" font-size="15" font-weight="760" fill="#FFFFFF" text-anchor="middle">實驗</text>
<rect x="1144" y="1380" width="146" height="38" rx="19" fill="#1F6F8B" stroke="none" stroke-width="2" />
<text x="1217" y="1405" font-size="15" font-weight="760" fill="#FFFFFF" text-anchor="middle">審稿</text>
<rect x="1304" y="1380" width="146" height="38" rx="19" fill="#1F6F8B" stroke="none" stroke-width="2" />
<text x="1377" y="1405" font-size="15" font-weight="760" fill="#FFFFFF" text-anchor="middle">ledger</text>
<rect x="420" y="1440" width="960" height="246" rx="24" fill="#FFFFFF" stroke="none" stroke-width="2" filter="url(#shadow)"/>
<rect x="420" y="1440" width="960" height="52" rx="24" fill="#5D6977" stroke="none" stroke-width="2" />
<text x="442" y="1474" font-size="18" font-weight="820" fill="#FFFFFF" text-anchor="start">治理層</text>
<rect x="438" y="1510" width="924" height="66" rx="18" fill="#FFFFFF" stroke="none" stroke-width="2" filter="url(#shadow)"/>
<rect x="438" y="1510" width="8" height="66" rx="18" fill="#5D6977" stroke="none" stroke-width="2" />
<text x="462" y="1544" font-size="15" font-weight="820" fill="#15202B" text-anchor="start">ccf-common</text>
<text x="462" y="1569" font-size="13" font-weight="520" fill="#5A6775" text-anchor="start">路由、策略、source registry</text>
<rect x="438" y="1592" width="924" height="66" rx="18" fill="#FFFFFF" stroke="none" stroke-width="2" filter="url(#shadow)"/>
<rect x="438" y="1592" width="8" height="66" rx="18" fill="#5D6977" stroke="none" stroke-width="2" />
<text x="462" y="1626" font-size="15" font-weight="820" fill="#15202B" text-anchor="start">ccf-skill-forger</text>
<text x="462" y="1651" font-size="13" font-weight="520" fill="#5A6775" text-anchor="start">skills、文件、圖、release</text>
</svg>
