<svg xmlns="http://www.w3.org/2000/svg" width="1800" height="1100" viewBox="0 0 1800 1100">
<defs>
<linearGradient id="header" x1="0" y1="0" x2="1" y2="1"><stop offset="0" stop-color="#102033"/><stop offset="0.58" stop-color="#1F6F8B"/><stop offset="1" stop-color="#7A4E9B"/></linearGradient>
<filter id="shadow" x="-20%" y="-20%" width="140%" height="160%"><feDropShadow dx="0" dy="12" stdDeviation="12" flood-color="#0B1826" flood-opacity="0.13"/></filter>
<marker id="arrow" markerWidth="13" markerHeight="13" refX="11" refY="6.5" orient="auto"><path d="M2,2 L11,6.5 L2,11 Z" fill="#7B8794"/></marker>
</defs>
<style>text{font-family:Microsoft YaHei, Segoe UI, Arial, sans-serif;dominant-baseline:auto} .mono{font-family:Consolas,Menlo,monospace}</style>
<rect x="0" y="0" width="1800" height="1100" rx="0" fill="#F6F8FB" stroke="none" stroke-width="2" />
<rect x="0" y="0" width="1800" height="158" rx="0" fill="url(#header)" stroke="none" stroke-width="2" />
<text x="72" y="66" font-size="44" font-weight="850" fill="#FFFFFF" text-anchor="start">可安装 Runtime Skills</text>
<text x="72" y="108" font-size="20" font-weight="500" fill="#D8E6F2" text-anchor="start">包含监控和写作范例支持的 15 个入口。</text>
<text x="1728" y="132" font-size="16" font-weight="650" fill="#D8E6F2" text-anchor="end">v0.5 · 15 个 owner skills · 一个论文项目闭环</text>
<rect x="70" y="235" width="380" height="328" rx="24" fill="#FFFFFF" stroke="none" stroke-width="2" filter="url(#shadow)"/>
<rect x="70" y="235" width="380" height="52" rx="24" fill="#1F7A8C" stroke="none" stroke-width="2" />
<text x="92" y="269" font-size="18" font-weight="820" fill="#FFFFFF" text-anchor="start">项目控制</text>
<rect x="88" y="305" width="344" height="66" rx="18" fill="#FFFFFF" stroke="none" stroke-width="2" filter="url(#shadow)"/>
<rect x="88" y="305" width="8" height="66" rx="18" fill="#1F7A8C" stroke="none" stroke-width="2" />
<text x="112" y="339" font-size="15" font-weight="820" fill="#15202B" text-anchor="start">ccf-project-scaffolder</text>
<text x="112" y="364" font-size="13" font-weight="520" fill="#5A6775" text-anchor="start">目录、模板、ccfa.yaml</text>
<rect x="88" y="387" width="344" height="66" rx="18" fill="#FFFFFF" stroke="none" stroke-width="2" filter="url(#shadow)"/>
<rect x="88" y="387" width="8" height="66" rx="18" fill="#1F7A8C" stroke="none" stroke-width="2" />
<text x="112" y="421" font-size="15" font-weight="820" fill="#15202B" text-anchor="start">ccf-pipeline-orchestrator</text>
<text x="112" y="446" font-size="13" font-weight="520" fill="#5A6775" text-anchor="start">阶段计划、gate、handoff</text>
<rect x="88" y="469" width="344" height="66" rx="18" fill="#FFFFFF" stroke="none" stroke-width="2" filter="url(#shadow)"/>
<rect x="88" y="469" width="8" height="66" rx="18" fill="#5D6977" stroke="none" stroke-width="2" />
<text x="112" y="503" font-size="15" font-weight="820" fill="#15202B" text-anchor="start">ccf-common</text>
<text x="112" y="528" font-size="13" font-weight="520" fill="#5A6775" text-anchor="start">路由、策略、source registry</text>
<rect x="505" y="235" width="380" height="410" rx="24" fill="#FFFFFF" stroke="none" stroke-width="2" filter="url(#shadow)"/>
<rect x="505" y="235" width="380" height="52" rx="24" fill="#D2673D" stroke="none" stroke-width="2" />
<text x="527" y="269" font-size="18" font-weight="820" fill="#FFFFFF" text-anchor="start">研究成型</text>
<rect x="523" y="305" width="344" height="66" rx="18" fill="#FFFFFF" stroke="none" stroke-width="2" filter="url(#shadow)"/>
<rect x="523" y="305" width="8" height="66" rx="18" fill="#D2673D" stroke="none" stroke-width="2" />
<text x="547" y="339" font-size="15" font-weight="820" fill="#15202B" text-anchor="start">ccf-idea-optimizer</text>
<text x="547" y="364" font-size="13" font-weight="520" fill="#5A6775" text-anchor="start">探索、救援、塑形</text>
<rect x="523" y="387" width="344" height="66" rx="18" fill="#FFFFFF" stroke="none" stroke-width="2" filter="url(#shadow)"/>
<rect x="523" y="387" width="8" height="66" rx="18" fill="#D2673D" stroke="none" stroke-width="2" />
<text x="547" y="421" font-size="15" font-weight="820" fill="#15202B" text-anchor="start">ccf-idea-reviewer</text>
<text x="547" y="446" font-size="13" font-weight="520" fill="#5A6775" text-anchor="start">评分、排序、阶段风险</text>
<rect x="523" y="469" width="344" height="66" rx="18" fill="#FFFFFF" stroke="none" stroke-width="2" filter="url(#shadow)"/>
<rect x="523" y="469" width="8" height="66" rx="18" fill="#6657A8" stroke="none" stroke-width="2" />
<text x="547" y="503" font-size="15" font-weight="820" fill="#15202B" text-anchor="start">ccf-literature-monitor</text>
<text x="547" y="528" font-size="13" font-weight="520" fill="#5A6775" text-anchor="start">新论文、竞品、overlap</text>
<rect x="523" y="551" width="344" height="66" rx="18" fill="#FFFFFF" stroke="none" stroke-width="2" filter="url(#shadow)"/>
<rect x="523" y="551" width="8" height="66" rx="18" fill="#6657A8" stroke="none" stroke-width="2" />
<text x="547" y="585" font-size="15" font-weight="820" fill="#15202B" text-anchor="start">ccf-literature-searcher</text>
<text x="547" y="610" font-size="13" font-weight="520" fill="#5A6775" text-anchor="start">prior art、open gap、benchmark</text>
<rect x="940" y="235" width="380" height="410" rx="24" fill="#FFFFFF" stroke="none" stroke-width="2" filter="url(#shadow)"/>
<rect x="940" y="235" width="380" height="52" rx="24" fill="#6657A8" stroke="none" stroke-width="2" />
<text x="962" y="269" font-size="18" font-weight="820" fill="#FFFFFF" text-anchor="start">证据到正文</text>
<rect x="958" y="305" width="344" height="66" rx="18" fill="#FFFFFF" stroke="none" stroke-width="2" filter="url(#shadow)"/>
<rect x="958" y="305" width="8" height="66" rx="18" fill="#6657A8" stroke="none" stroke-width="2" />
<text x="982" y="339" font-size="15" font-weight="820" fill="#15202B" text-anchor="start">ccf-experiment-designer</text>
<text x="982" y="364" font-size="13" font-weight="520" fill="#5A6775" text-anchor="start">baseline、消融、真实结果表</text>
<rect x="958" y="387" width="344" height="66" rx="18" fill="#FFFFFF" stroke="none" stroke-width="2" filter="url(#shadow)"/>
<rect x="958" y="387" width="8" height="66" rx="18" fill="#2D3742" stroke="none" stroke-width="2" />
<text x="982" y="421" font-size="15" font-weight="820" fill="#15202B" text-anchor="start">ccf-paper-to-exemplar</text>
<text x="982" y="446" font-size="13" font-weight="520" fill="#5A6775" text-anchor="start">PDF 转写作范例卡</text>
<rect x="958" y="469" width="344" height="66" rx="18" fill="#FFFFFF" stroke="none" stroke-width="2" filter="url(#shadow)"/>
<rect x="958" y="469" width="8" height="66" rx="18" fill="#2D3742" stroke="none" stroke-width="2" />
<text x="982" y="503" font-size="15" font-weight="820" fill="#15202B" text-anchor="start">ccf-paper-writer</text>
<text x="982" y="528" font-size="13" font-weight="520" fill="#5A6775" text-anchor="start">起草、篇幅、压缩、展示</text>
<rect x="958" y="551" width="344" height="66" rx="18" fill="#FFFFFF" stroke="none" stroke-width="2" filter="url(#shadow)"/>
<rect x="958" y="551" width="8" height="66" rx="18" fill="#B58B2A" stroke="none" stroke-width="2" />
<text x="982" y="585" font-size="15" font-weight="820" fill="#15202B" text-anchor="start">ccf-paper-reviewer</text>
<text x="982" y="610" font-size="13" font-weight="520" fill="#5A6775" text-anchor="start">科学评审和写作评审</text>
<rect x="1375" y="235" width="380" height="410" rx="24" fill="#FFFFFF" stroke="none" stroke-width="2" filter="url(#shadow)"/>
<rect x="1375" y="235" width="380" height="52" rx="24" fill="#8A4F86" stroke="none" stroke-width="2" />
<text x="1397" y="269" font-size="18" font-weight="820" fill="#FFFFFF" text-anchor="start">交付与治理</text>
<rect x="1393" y="305" width="344" height="66" rx="18" fill="#FFFFFF" stroke="none" stroke-width="2" filter="url(#shadow)"/>
<rect x="1393" y="305" width="8" height="66" rx="18" fill="#8A4F86" stroke="none" stroke-width="2" />
<text x="1417" y="339" font-size="15" font-weight="820" fill="#15202B" text-anchor="start">ccf-integrity-auditor</text>
<text x="1417" y="364" font-size="13" font-weight="520" fill="#5A6775" text-anchor="start">claim、数字、引用</text>
<rect x="1393" y="387" width="344" height="66" rx="18" fill="#FFFFFF" stroke="none" stroke-width="2" filter="url(#shadow)"/>
<rect x="1393" y="387" width="8" height="66" rx="18" fill="#BA4C5E" stroke="none" stroke-width="2" />
<text x="1417" y="421" font-size="15" font-weight="820" fill="#15202B" text-anchor="start">ccf-submission-checker</text>
<text x="1417" y="446" font-size="13" font-weight="520" fill="#5A6775" text-anchor="start">会议、PDF、匿名、artifact</text>
<rect x="1393" y="469" width="344" height="66" rx="18" fill="#FFFFFF" stroke="none" stroke-width="2" filter="url(#shadow)"/>
<rect x="1393" y="469" width="8" height="66" rx="18" fill="#477AA6" stroke="none" stroke-width="2" />
<text x="1417" y="503" font-size="15" font-weight="820" fill="#15202B" text-anchor="start">ccf-rebuttal-writer</text>
<text x="1417" y="528" font-size="13" font-weight="520" fill="#5A6775" text-anchor="start">回应、ledger、重投</text>
<rect x="1393" y="551" width="344" height="66" rx="18" fill="#FFFFFF" stroke="none" stroke-width="2" filter="url(#shadow)"/>
<rect x="1393" y="551" width="8" height="66" rx="18" fill="#5D6977" stroke="none" stroke-width="2" />
<text x="1417" y="585" font-size="15" font-weight="820" fill="#15202B" text-anchor="start">ccf-skill-forger</text>
<text x="1417" y="610" font-size="13" font-weight="520" fill="#5A6775" text-anchor="start">skills、文档、图、release</text>
</svg>
