<svg xmlns="http://www.w3.org/2000/svg" width="1800" height="820" viewBox="0 0 1800 820">
<defs>
<linearGradient id="header" x1="0" y1="0" x2="1" y2="1"><stop offset="0" stop-color="#102033"/><stop offset="0.58" stop-color="#1F6F8B"/><stop offset="1" stop-color="#7A4E9B"/></linearGradient>
<filter id="shadow" x="-20%" y="-20%" width="140%" height="160%"><feDropShadow dx="0" dy="12" stdDeviation="12" flood-color="#0B1826" flood-opacity="0.13"/></filter>
<marker id="arrow" markerWidth="13" markerHeight="13" refX="11" refY="6.5" orient="auto"><path d="M2,2 L11,6.5 L2,11 Z" fill="#7B8794"/></marker>
</defs>
<style>text{font-family:'Droid Sans Fallback', 'Microsoft JhengHei', 'PingFang TC', 'Noto Sans CJK TC', 'AR PL UMing TW', 'Segoe UI', Arial, sans-serif;dominant-baseline:auto} .mono{font-family:Consolas,Menlo,monospace}</style>
<rect x="0" y="0" width="1800" height="820" rx="0" fill="#F6F8FB" stroke="none" stroke-width="2" />
<rect x="0" y="0" width="1800" height="158" rx="0" fill="url(#header)" stroke="none" stroke-width="2" />
<text x="72" y="66" font-size="44" font-weight="850" fill="#FFFFFF" text-anchor="start">可安裝 Runtime Skills</text>
<text x="72" y="108" font-size="20" font-weight="500" fill="#D8E6F2" text-anchor="start">21 個 owner，包含環境與演算法設計驗證鏈。</text>
<text x="1728" y="132" font-size="16" font-weight="650" fill="#D8E6F2" text-anchor="end">v0.8 · 21 個 owner skills · 版本化研究閉環</text>
<rect x="40" y="225" width="320" height="328" rx="24" fill="#FFFFFF" stroke="none" stroke-width="2" filter="url(#shadow)"/>
<rect x="40" y="225" width="320" height="52" rx="24" fill="#1F7A8C" stroke="none" stroke-width="2" />
<text x="62" y="259" font-size="18" font-weight="820" fill="#FFFFFF" text-anchor="start">專案控制</text>
<rect x="58" y="295" width="284" height="66" rx="18" fill="#FFFFFF" stroke="none" stroke-width="2" filter="url(#shadow)"/>
<rect x="58" y="295" width="8" height="66" rx="18" fill="#1F7A8C" stroke="none" stroke-width="2" />
<text x="82" y="329" font-size="15" font-weight="820" fill="#15202B" text-anchor="start">ccf-project-scaffolder</text>
<text x="82" y="354" font-size="13" font-weight="520" fill="#5A6775" text-anchor="start">目錄、模板、ccfa.yaml</text>
<rect x="58" y="377" width="284" height="66" rx="18" fill="#FFFFFF" stroke="none" stroke-width="2" filter="url(#shadow)"/>
<rect x="58" y="377" width="8" height="66" rx="18" fill="#1F7A8C" stroke="none" stroke-width="2" />
<text x="82" y="411" font-size="15" font-weight="820" fill="#15202B" text-anchor="start">ccf-pipeline-orchestrator</text>
<text x="82" y="436" font-size="13" font-weight="520" fill="#5A6775" text-anchor="start">階段計畫、gate、handoff</text>
<rect x="58" y="459" width="284" height="66" rx="18" fill="#FFFFFF" stroke="none" stroke-width="2" filter="url(#shadow)"/>
<rect x="58" y="459" width="8" height="66" rx="18" fill="#5D6977" stroke="none" stroke-width="2" />
<text x="82" y="493" font-size="15" font-weight="820" fill="#15202B" text-anchor="start">ccf-common</text>
<text x="82" y="518" font-size="13" font-weight="520" fill="#5A6775" text-anchor="start">路由、策略、source registry</text>
<rect x="390" y="225" width="320" height="410" rx="24" fill="#FFFFFF" stroke="none" stroke-width="2" filter="url(#shadow)"/>
<rect x="390" y="225" width="320" height="52" rx="24" fill="#D2673D" stroke="none" stroke-width="2" />
<text x="412" y="259" font-size="18" font-weight="820" fill="#FFFFFF" text-anchor="start">研究成型</text>
<rect x="408" y="295" width="284" height="66" rx="18" fill="#FFFFFF" stroke="none" stroke-width="2" filter="url(#shadow)"/>
<rect x="408" y="295" width="8" height="66" rx="18" fill="#D2673D" stroke="none" stroke-width="2" />
<text x="432" y="329" font-size="15" font-weight="820" fill="#15202B" text-anchor="start">ccf-idea-optimizer</text>
<text x="432" y="354" font-size="13" font-weight="520" fill="#5A6775" text-anchor="start">探索、救援、塑形</text>
<rect x="408" y="377" width="284" height="66" rx="18" fill="#FFFFFF" stroke="none" stroke-width="2" filter="url(#shadow)"/>
<rect x="408" y="377" width="8" height="66" rx="18" fill="#D2673D" stroke="none" stroke-width="2" />
<text x="432" y="411" font-size="15" font-weight="820" fill="#15202B" text-anchor="start">ccf-idea-reviewer</text>
<text x="432" y="436" font-size="13" font-weight="520" fill="#5A6775" text-anchor="start">評分、排序、階段風險</text>
<rect x="408" y="459" width="284" height="66" rx="18" fill="#FFFFFF" stroke="none" stroke-width="2" filter="url(#shadow)"/>
<rect x="408" y="459" width="8" height="66" rx="18" fill="#6657A8" stroke="none" stroke-width="2" />
<text x="432" y="493" font-size="15" font-weight="820" fill="#15202B" text-anchor="start">ccf-literature-monitor</text>
<text x="432" y="518" font-size="13" font-weight="520" fill="#5A6775" text-anchor="start">新論文、競品、overlap</text>
<rect x="408" y="541" width="284" height="66" rx="18" fill="#FFFFFF" stroke="none" stroke-width="2" filter="url(#shadow)"/>
<rect x="408" y="541" width="8" height="66" rx="18" fill="#6657A8" stroke="none" stroke-width="2" />
<text x="432" y="575" font-size="15" font-weight="820" fill="#15202B" text-anchor="start">ccf-literature-searcher</text>
<text x="432" y="600" font-size="13" font-weight="520" fill="#5A6775" text-anchor="start">prior art、open</text>
<text x="432" y="618" font-size="13" font-weight="520" fill="#5A6775" text-anchor="start">gap、benchmark</text>
<rect x="740" y="225" width="320" height="492" rx="24" fill="#FFFFFF" stroke="none" stroke-width="2" filter="url(#shadow)"/>
<rect x="740" y="225" width="320" height="52" rx="24" fill="#D2673D" stroke="none" stroke-width="2" />
<text x="762" y="259" font-size="18" font-weight="820" fill="#FFFFFF" text-anchor="start">場景與演算法</text>
<rect x="758" y="295" width="284" height="66" rx="18" fill="#FFFFFF" stroke="none" stroke-width="2" filter="url(#shadow)"/>
<rect x="758" y="295" width="8" height="66" rx="18" fill="#D2673D" stroke="none" stroke-width="2" />
<text x="782" y="329" font-size="15" font-weight="820" fill="#15202B" text-anchor="start">ccf-env-design</text>
<text x="782" y="354" font-size="13" font-weight="520" fill="#5A6775" text-anchor="start">論文場景、正式問題、場景 MVP</text>
<rect x="758" y="377" width="284" height="66" rx="18" fill="#FFFFFF" stroke="none" stroke-width="2" filter="url(#shadow)"/>
<rect x="758" y="377" width="8" height="66" rx="18" fill="#8A4F86" stroke="none" stroke-width="2" />
<text x="782" y="411" font-size="15" font-weight="820" fill="#15202B" text-anchor="start">ccf-env-code-auditor</text>
<text x="782" y="436" font-size="13" font-weight="520" fill="#5A6775" text-anchor="start">環境契約與獨立執行</text>
<rect x="758" y="459" width="284" height="66" rx="18" fill="#FFFFFF" stroke="none" stroke-width="2" filter="url(#shadow)"/>
<rect x="758" y="459" width="8" height="66" rx="18" fill="#6657A8" stroke="none" stroke-width="2" />
<text x="782" y="493" font-size="15" font-weight="820" fill="#15202B" text-anchor="start">ccf-algorithm-designer</text>
<text x="782" y="518" font-size="13" font-weight="520" fill="#5A6775" text-anchor="start">正式機制與演算法 MVP</text>
<rect x="758" y="541" width="284" height="66" rx="18" fill="#FFFFFF" stroke="none" stroke-width="2" filter="url(#shadow)"/>
<rect x="758" y="541" width="8" height="66" rx="18" fill="#8A4F86" stroke="none" stroke-width="2" />
<text x="782" y="575" font-size="15" font-weight="820" fill="#15202B" text-anchor="start">ccf-algorithm-code-auditor</text>
<text x="782" y="600" font-size="13" font-weight="520" fill="#5A6775" text-anchor="start">演算法契約與獨立執行</text>
<rect x="758" y="623" width="284" height="66" rx="18" fill="#FFFFFF" stroke="none" stroke-width="2" filter="url(#shadow)"/>
<rect x="758" y="623" width="8" height="66" rx="18" fill="#477AA6" stroke="none" stroke-width="2" />
<text x="782" y="657" font-size="15" font-weight="820" fill="#15202B" text-anchor="start">ccf-experiment-debugger</text>
<text x="782" y="682" font-size="13" font-weight="520" fill="#5A6775" text-anchor="start">單一 owner 修復與閉環複審</text>
<rect x="1090" y="225" width="320" height="492" rx="24" fill="#FFFFFF" stroke="none" stroke-width="2" filter="url(#shadow)"/>
<rect x="1090" y="225" width="320" height="52" rx="24" fill="#6657A8" stroke="none" stroke-width="2" />
<text x="1112" y="259" font-size="18" font-weight="820" fill="#FFFFFF" text-anchor="start">證據到正文</text>
<rect x="1108" y="295" width="284" height="66" rx="18" fill="#FFFFFF" stroke="none" stroke-width="2" filter="url(#shadow)"/>
<rect x="1108" y="295" width="8" height="66" rx="18" fill="#6657A8" stroke="none" stroke-width="2" />
<text x="1132" y="329" font-size="15" font-weight="820" fill="#15202B" text-anchor="start">ccf-experiment-designer</text>
<text x="1132" y="354" font-size="13" font-weight="520" fill="#5A6775" text-anchor="start">baseline、消融、結果規格</text>
<rect x="1108" y="377" width="284" height="66" rx="18" fill="#FFFFFF" stroke="none" stroke-width="2" filter="url(#shadow)"/>
<rect x="1108" y="377" width="8" height="66" rx="18" fill="#6657A8" stroke="none" stroke-width="2" />
<text x="1132" y="411" font-size="15" font-weight="820" fill="#15202B" text-anchor="start">ccf-visual-composer</text>
<text x="1132" y="436" font-size="13" font-weight="520" fill="#5A6775" text-anchor="start">Python 繪圖、圖表、排版 QA</text>
<rect x="1108" y="459" width="284" height="66" rx="18" fill="#FFFFFF" stroke="none" stroke-width="2" filter="url(#shadow)"/>
<rect x="1108" y="459" width="8" height="66" rx="18" fill="#2D3742" stroke="none" stroke-width="2" />
<text x="1132" y="493" font-size="15" font-weight="820" fill="#15202B" text-anchor="start">ccf-paper-to-exemplar</text>
<text x="1132" y="518" font-size="13" font-weight="520" fill="#5A6775" text-anchor="start">PDF 轉寫作範例卡</text>
<rect x="1108" y="541" width="284" height="66" rx="18" fill="#FFFFFF" stroke="none" stroke-width="2" filter="url(#shadow)"/>
<rect x="1108" y="541" width="8" height="66" rx="18" fill="#2D3742" stroke="none" stroke-width="2" />
<text x="1132" y="575" font-size="15" font-weight="820" fill="#15202B" text-anchor="start">ccf-paper-writer</text>
<text x="1132" y="600" font-size="13" font-weight="520" fill="#5A6775" text-anchor="start">起草、篇幅、壓縮、展示</text>
<rect x="1108" y="623" width="284" height="66" rx="18" fill="#FFFFFF" stroke="none" stroke-width="2" filter="url(#shadow)"/>
<rect x="1108" y="623" width="8" height="66" rx="18" fill="#B58B2A" stroke="none" stroke-width="2" />
<text x="1132" y="657" font-size="15" font-weight="820" fill="#15202B" text-anchor="start">ccf-paper-reviewer</text>
<text x="1132" y="682" font-size="13" font-weight="520" fill="#5A6775" text-anchor="start">科學審稿和寫作審稿</text>
<rect x="1440" y="225" width="320" height="410" rx="24" fill="#FFFFFF" stroke="none" stroke-width="2" filter="url(#shadow)"/>
<rect x="1440" y="225" width="320" height="52" rx="24" fill="#8A4F86" stroke="none" stroke-width="2" />
<text x="1462" y="259" font-size="18" font-weight="820" fill="#FFFFFF" text-anchor="start">交付與維護</text>
<rect x="1458" y="295" width="284" height="66" rx="18" fill="#FFFFFF" stroke="none" stroke-width="2" filter="url(#shadow)"/>
<rect x="1458" y="295" width="8" height="66" rx="18" fill="#8A4F86" stroke="none" stroke-width="2" />
<text x="1482" y="329" font-size="15" font-weight="820" fill="#15202B" text-anchor="start">ccf-integrity-auditor</text>
<text x="1482" y="354" font-size="13" font-weight="520" fill="#5A6775" text-anchor="start">結論、數字、引用</text>
<rect x="1458" y="377" width="284" height="66" rx="18" fill="#FFFFFF" stroke="none" stroke-width="2" filter="url(#shadow)"/>
<rect x="1458" y="377" width="8" height="66" rx="18" fill="#BA4C5E" stroke="none" stroke-width="2" />
<text x="1482" y="411" font-size="15" font-weight="820" fill="#15202B" text-anchor="start">ccf-submission-checker</text>
<text x="1482" y="436" font-size="13" font-weight="520" fill="#5A6775" text-anchor="start">會議、PDF、匿名、artifact</text>
<rect x="1458" y="459" width="284" height="66" rx="18" fill="#FFFFFF" stroke="none" stroke-width="2" filter="url(#shadow)"/>
<rect x="1458" y="459" width="8" height="66" rx="18" fill="#477AA6" stroke="none" stroke-width="2" />
<text x="1482" y="493" font-size="15" font-weight="820" fill="#15202B" text-anchor="start">ccf-rebuttal-writer</text>
<text x="1482" y="518" font-size="13" font-weight="520" fill="#5A6775" text-anchor="start">回應、ledger、重投</text>
<rect x="1458" y="541" width="284" height="66" rx="18" fill="#FFFFFF" stroke="none" stroke-width="2" filter="url(#shadow)"/>
<rect x="1458" y="541" width="8" height="66" rx="18" fill="#5D6977" stroke="none" stroke-width="2" />
<text x="1482" y="575" font-size="15" font-weight="820" fill="#15202B" text-anchor="start">ccf-skill-forger</text>
<text x="1482" y="600" font-size="13" font-weight="520" fill="#5A6775" text-anchor="start">skills、文件、圖、release</text>
</svg>
