<svg xmlns="http://www.w3.org/2000/svg" width="1800" height="900" viewBox="0 0 1800 900">
<defs>
<filter id="shadow" x="-20%" y="-20%" width="140%" height="150%"><feDropShadow dx="0" dy="10" stdDeviation="10" flood-color="#0B1826" flood-opacity="0.12"/></filter>
<marker id="arrow" markerWidth="12" markerHeight="12" refX="10" refY="6" orient="auto"><path d="M2,2 L10,6 L2,10 Z" fill="#8D9AA8"/></marker>
</defs>
<style>text{font-family:Microsoft YaHei, Segoe UI, Arial, sans-serif;dominant-baseline:auto} .mono{font-family:Consolas,Menlo,monospace}</style>
<rect x="0" y="0" width="1800" height="900" rx="0" fill="#F3F6F9" stroke="none" stroke-width="2" />
<rect x="0" y="0" width="1800" height="170" rx="0" fill="#102033" stroke="none" stroke-width="2" />
<text x="70" y="72" font-size="38" font-weight="820" fill="#FFFFFF" text-anchor="start">Artifact 合约</text>
<text x="70" y="112" font-size="18" font-weight="450" fill="#D6E1EC" text-anchor="start">共享状态串联 idea、证据、正文、审稿、投稿和 rebuttal。</text>
<rect x="650" y="270" width="330" height="105" rx="22" fill="#102033" stroke="#102033" stroke-width="2" filter="url(#shadow)"/>
<text x="678" y="312" font-size="24" font-weight="820" fill="#FFFFFF" text-anchor="start">ccfa.yaml</text>
<text x="678" y="343" font-size="14" font-weight="550" fill="#D6E1EC" text-anchor="start">ccf-project-scaffolder / orchestrator</text>
<rect x="110" y="500" width="330" height="105" rx="22" fill="#FFFFFF" stroke="#C05C35" stroke-width="2" filter="url(#shadow)"/>
<text x="138" y="542" font-size="24" font-weight="820" fill="#17212B" text-anchor="start">idea.md</text>
<text x="138" y="573" font-size="14" font-weight="550" fill="#536171" text-anchor="start">ccf-idea-optimizer</text>
<rect x="510" y="500" width="330" height="105" rx="22" fill="#FFFFFF" stroke="#6F5AA6" stroke-width="2" filter="url(#shadow)"/>
<text x="538" y="542" font-size="24" font-weight="820" fill="#17212B" text-anchor="start">evidence.md</text>
<text x="538" y="573" font-size="14" font-weight="550" fill="#536171" text-anchor="start">ccf-literature-searcher / experiment</text>
<rect x="910" y="500" width="330" height="105" rx="22" fill="#FFFFFF" stroke="#333B46" stroke-width="2" filter="url(#shadow)"/>
<text x="938" y="542" font-size="24" font-weight="820" fill="#17212B" text-anchor="start">paper.tex</text>
<text x="938" y="573" font-size="14" font-weight="550" fill="#536171" text-anchor="start">ccf-paper-writer</text>
<rect x="1310" y="500" width="330" height="105" rx="22" fill="#FFFFFF" stroke="#A78328" stroke-width="2" filter="url(#shadow)"/>
<text x="1338" y="542" font-size="24" font-weight="820" fill="#17212B" text-anchor="start">review.md</text>
<text x="1338" y="573" font-size="14" font-weight="550" fill="#536171" text-anchor="start">ccf-paper-reviewer / integrity</text>
<rect x="510" y="700" width="330" height="105" rx="22" fill="#FFFFFF" stroke="#BA4C5E" stroke-width="2" filter="url(#shadow)"/>
<text x="538" y="742" font-size="24" font-weight="820" fill="#17212B" text-anchor="start">submission/</text>
<text x="538" y="773" font-size="14" font-weight="550" fill="#536171" text-anchor="start">ccf-submission-checker</text>
<rect x="910" y="700" width="330" height="105" rx="22" fill="#FFFFFF" stroke="#477AA6" stroke-width="2" filter="url(#shadow)"/>
<text x="938" y="742" font-size="24" font-weight="820" fill="#17212B" text-anchor="start">rebuttal.tex</text>
<text x="938" y="773" font-size="14" font-weight="550" fill="#536171" text-anchor="start">ccf-rebuttal-writer</text>
<line x1="815" y1="375" x2="275" y2="500" stroke="#CAD4DE" stroke-width="3" stroke-linecap="round" marker-end="url(#arrow)"/>
<line x1="815" y1="375" x2="675" y2="500" stroke="#CAD4DE" stroke-width="3" stroke-linecap="round" marker-end="url(#arrow)"/>
<line x1="815" y1="375" x2="1075" y2="500" stroke="#CAD4DE" stroke-width="3" stroke-linecap="round" marker-end="url(#arrow)"/>
<line x1="815" y1="375" x2="1475" y2="500" stroke="#CAD4DE" stroke-width="3" stroke-linecap="round" marker-end="url(#arrow)"/>
<line x1="675" y1="605" x2="675" y2="700" stroke="#CAD4DE" stroke-width="3" stroke-linecap="round" marker-end="url(#arrow)"/>
<line x1="1075" y1="605" x2="1075" y2="700" stroke="#CAD4DE" stroke-width="3" stroke-linecap="round" marker-end="url(#arrow)"/>
</svg>
